<?xml version="1.0" encoding="UTF-8" standalone="no"?>
<!-- Created with Inkscape (http://www.inkscape.org/) -->

<svg
   version="1.1"
   id="svg1"
   width="292.26306"
   height="125.95926"
   viewBox="0 0 292.26306 125.95926"
   sodipodi:docname="SBMA.svg"
   inkscape:version="1.4.2 (f4327f4, 2025-05-13)"
   xmlns:inkscape="http://www.inkscape.org/namespaces/inkscape"
   xmlns:sodipodi="http://sodipodi.sourceforge.net/DTD/sodipodi-0.dtd"
   xmlns="http://www.w3.org/2000/svg"
   xmlns:svg="http://www.w3.org/2000/svg">
  <defs
     id="defs1" />
  <sodipodi:namedview
     id="namedview1"
     pagecolor="#ffffff"
     bordercolor="#000000"
     borderopacity="0.25"
     inkscape:showpageshadow="2"
     inkscape:pageopacity="0.0"
     inkscape:pagecheckerboard="0"
     inkscape:deskcolor="#d1d1d1"
     inkscape:zoom="1.5628667"
     inkscape:cx="190.99518"
     inkscape:cy="141.72674"
     inkscape:window-width="2560"
     inkscape:window-height="1369"
     inkscape:window-x="-8"
     inkscape:window-y="-8"
     inkscape:window-maximized="1"
     inkscape:current-layer="g1">
    <inkscape:page
       x="6.8908619e-08"
       y="0"
       inkscape:label="1"
       id="page1"
       width="292.26306"
       height="125.95927"
       margin="0"
       bleed="0" />
  </sodipodi:namedview>
  <g
     id="g1"
     inkscape:groupmode="layer"
     inkscape:label="1"
     transform="translate(-1.6869858,-37.015625)">
    <path
       id="path1"
       d="m 113.15693,132.20759 -0.55938,0.11494 -0.52106,-0.22988 -0.28352,-0.49041 0.0613,-0.56704 0.38314,-0.42145 0.37547,-0.42144 0.0613,-0.56704 -0.28352,-0.49041 -0.52106,-0.22988 -0.55171,0.11494 -0.55938,0.11494 -0.52106,-0.22988 -0.28352,-0.49041 0.0613,-0.56704 0.38314,-0.42145 0.37547,-0.42144 0.0613,-0.56704 -0.28352,-0.49041 -0.52106,-0.22988 -0.55171,0.11494 -0.55938,0.1226 -0.52106,-0.22988 -0.28352,-0.49807 0.0613,-0.55937 0.38314,-0.42911 0.37547,-0.42145 0.0613,-0.55937 -0.28352,-0.49808 -0.52106,-0.22988 -0.55171,0.1226 -0.55938,0.11494 -0.52106,-0.22988 -0.28352,-0.49041 0.0613,-0.56703 0.38313,-0.42145"
       style="fill:none;stroke:#000000;stroke-width:0.551712;stroke-linecap:round;stroke-linejoin:round;stroke-miterlimit:10;stroke-dasharray:none;stroke-opacity:1" />
    <path
       id="path2"
       d="m 169.85453,132.99048 0.72735,0.1796 c -0.15041,0.59939 -0.42204,1.05511 -0.81715,1.36491 -0.3951,0.31204 -0.88001,0.46694 -1.45471,0.46694 -0.58817,0 -1.06633,-0.11898 -1.43675,-0.35919 -0.37265,-0.23796 -0.65551,-0.58592 -0.85307,-1.04164 -0.19306,-0.45347 -0.28735,-0.94511 -0.28735,-1.47267 0,-0.56796 0.10776,-1.06409 0.32327,-1.49062 0.22,-0.42429 0.53205,-0.74756 0.93389,-0.96981 0.40633,-0.22 0.85307,-0.33225 1.33797,-0.33225 0.54327,0 1.00124,0.14143 1.37389,0.42205 0.37715,0.27612 0.63981,0.66898 0.79022,1.17633 l -0.71838,0.17062 c -0.12571,-0.3996 -0.31204,-0.69144 -0.55674,-0.87103 -0.24021,-0.18408 -0.54327,-0.27837 -0.90695,-0.27837 -0.4198,0 -0.77225,0.10327 -1.0596,0.30531 -0.28286,0.20429 -0.48041,0.47592 -0.59266,0.81715 -0.11449,0.33674 -0.17061,0.68695 -0.17061,1.05062 0,0.46695 0.0651,0.87552 0.19755,1.22124 0.13694,0.34796 0.35021,0.60837 0.63756,0.78123 0.28735,0.16837 0.59715,0.25143 0.93388,0.25143 0.40634,0 0.74981,-0.11673 1.03267,-0.3502 0.28061,-0.23348 0.46919,-0.57919 0.56572,-1.04165 z m 0,0"
       style="fill:#000000;fill-opacity:1;fill-rule:nonzero;stroke:none;stroke-width:0.766266"
       aria-label="C" />
    <path
       id="path3"
       d="m 171.4821,134.91213 v -5.48658 h 0.72735 v 2.2539 h 2.84656 v -2.2539 h 0.72735 v 5.48658 h -0.72735 v -2.58614 h -2.84656 v 2.58614 z m 0,0"
       style="fill:#000000;fill-opacity:1;fill-rule:nonzero;stroke:none;stroke-width:0.766266"
       aria-label="H" />
    <path
       id="path4"
       d="m 176.6499,135.77643 0.53879,-0.0718 c 0.0584,0.30531 0.16387,0.52756 0.31428,0.6645 0.14817,0.13245 0.32776,0.19755 0.53879,0.19755 0.25592,0 0.47143,-0.0853 0.64653,-0.26041 0.17286,-0.17959 0.26041,-0.39735 0.26041,-0.65552 0,-0.24469 -0.0808,-0.44898 -0.24245,-0.61062 -0.16163,-0.16163 -0.36817,-0.24245 -0.6196,-0.24245 -0.10326,0 -0.22898,0.0224 -0.37714,0.0629 l 0.0628,-0.47592 c 0.0359,0.007 0.0629,0.009 0.0808,0.009 0.23347,0 0.44001,-0.0584 0.6196,-0.1796 0.18408,-0.11898 0.27837,-0.30531 0.27837,-0.55674 0,-0.19755 -0.0696,-0.36143 -0.20653,-0.49388 -0.13245,-0.1302 -0.30307,-0.19755 -0.51184,-0.19755 -0.21103,0 -0.38613,0.0674 -0.52981,0.19755 -0.13918,0.13245 -0.22449,0.33 -0.26041,0.59266 l -0.53878,-0.0898 c 0.0651,-0.36367 0.21551,-0.64653 0.44899,-0.84409 0.23347,-0.19755 0.52306,-0.29633 0.87103,-0.29633 0.23796,0 0.45796,0.0516 0.65551,0.15266 0.20205,0.10326 0.35919,0.24245 0.46695,0.42204 0.10775,0.1796 0.16163,0.36817 0.16163,0.56572 0,0.19307 -0.0516,0.36593 -0.15265,0.52082 -0.10327,0.15715 -0.25593,0.27838 -0.45797,0.36817 0.26266,0.0606 0.46695,0.18633 0.61062,0.37715 0.14368,0.18633 0.21551,0.42204 0.21551,0.70939 0,0.38389 -0.14143,0.7094 -0.42204,0.97879 -0.28286,0.2649 -0.63531,0.39511 -1.0596,0.39511 -0.38389,0 -0.70491,-0.11225 -0.96083,-0.34123 -0.25143,-0.23347 -0.39511,-0.53205 -0.43103,-0.89797 z m 0,0"
       style="fill:#000000;fill-opacity:1;fill-rule:nonzero;stroke:none;stroke-width:0.766266"
       aria-label="3" />
    <path
       id="path5"
       d="m 140.52913,100.43015 c 0,-0.909193 0.24469,-1.620833 0.73633,-2.137165 0.48939,-0.514087 1.12246,-0.772252 1.89471,-0.772252 0.50287,0 0.95634,0.121225 1.36492,0.359187 0.40633,0.240206 0.71388,0.579189 0.9249,1.014704 0.21552,0.431025 0.32327,0.922662 0.32327,1.472666 0,0.55225 -0.11449,1.04838 -0.34123,1.49063 -0.22224,0.43776 -0.53878,0.77001 -0.95184,0.99674 -0.40858,0.22225 -0.85083,0.33225 -1.329,0.33225 -0.51633,0 -0.97654,-0.12122 -1.38287,-0.36816 -0.40857,-0.25144 -0.71613,-0.59266 -0.9249,-1.02369 -0.21103,-0.43102 -0.31429,-0.8845 -0.31429,-1.36491 z m 0.75429,0.009 c 0,0.66001 0.1751,1.18083 0.5298,1.56246 0.35245,0.37715 0.79919,0.56572 1.33797,0.56572 0.54328,0 0.99226,-0.19081 1.34696,-0.5747 0.35245,-0.38163 0.5298,-0.92715 0.5298,-1.6343 0,-0.442247 -0.0786,-0.830618 -0.23347,-1.167356 -0.15041,-0.334494 -0.37266,-0.59266 -0.6645,-0.772253 -0.28735,-0.184084 -0.61062,-0.27837 -0.96981,-0.27837 -0.51633,0 -0.95858,0.177348 -1.32899,0.529801 -0.36592,0.354697 -0.54776,0.942867 -0.54776,1.768998 z m 0,0"
       style="fill:#000000;fill-opacity:1;fill-rule:nonzero;stroke:none;stroke-width:0.766266"
       aria-label="O" />
    <path
       id="path6"
       d="m 165.53979,91.787205 c 0,-0.909193 0.2447,-1.620833 0.73633,-2.137165 0.4894,-0.514087 1.12247,-0.772253 1.89472,-0.772253 0.50286,0 0.95633,0.121226 1.36491,0.359187 0.40633,0.240207 0.71388,0.57919 0.92491,1.014705 0.21551,0.431024 0.32327,0.922662 0.32327,1.472668 0,0.55225 -0.1145,1.048378 -0.34123,1.490627 -0.22225,0.43776 -0.53878,0.770008 -0.95185,0.996745 -0.40857,0.222247 -0.85082,0.332248 -1.32899,0.332248 -0.51633,0 -0.97654,-0.121225 -1.38287,-0.368167 -0.40858,-0.251431 -0.71613,-0.592659 -0.92491,-1.023684 -0.21102,-0.431024 -0.31429,-0.884498 -0.31429,-1.364911 z m 0.75429,0.009 c 0,0.660007 0.17511,1.180829 0.52981,1.562465 0.35245,0.377147 0.79919,0.56572 1.33797,0.56572 0.54327,0 0.99225,-0.190818 1.34695,-0.574699 0.35245,-0.381637 0.5298,-0.927153 0.5298,-1.634303 0,-0.442249 -0.0786,-0.83062 -0.23347,-1.167359 -0.15041,-0.334493 -0.37266,-0.592659 -0.6645,-0.772253 -0.28735,-0.184083 -0.61061,-0.27837 -0.9698,-0.27837 -0.51633,0 -0.95858,0.177349 -1.329,0.529802 -0.36592,0.354697 -0.54776,0.942866 -0.54776,1.768997 z m 0,0"
       style="fill:#000000;fill-opacity:1;fill-rule:nonzero;stroke:none;stroke-width:0.766266"
       aria-label="O" />
    <path
       id="path7"
       d="m 179.9679,40.670356 0.72735,0.179594 c -0.15041,0.599394 -0.42204,1.055113 -0.81715,1.364912 -0.39511,0.312044 -0.88001,0.466943 -1.45471,0.466943 -0.58817,0 -1.06634,-0.11898 -1.43675,-0.359187 -0.37265,-0.237962 -0.65551,-0.585924 -0.85307,-1.041643 -0.19306,-0.453474 -0.28735,-0.945112 -0.28735,-1.472668 0,-0.567965 0.10776,-1.064093 0.32327,-1.490628 0.22,-0.42429 0.53205,-0.747558 0.93389,-0.969806 0.40633,-0.220002 0.85307,-0.332248 1.33797,-0.332248 0.54327,0 1.00124,0.14143 1.37389,0.422045 0.37715,0.276126 0.6398,0.668987 0.79021,1.176339 l -0.71837,0.170614 c -0.12572,-0.399596 -0.31204,-0.691436 -0.55674,-0.871029 -0.24021,-0.184084 -0.54327,-0.278371 -0.90695,-0.278371 -0.4198,0 -0.77225,0.103267 -1.0596,0.30531 -0.28286,0.204287 -0.48041,0.475923 -0.59266,0.817151 -0.11449,0.336738 -0.17061,0.686946 -0.17061,1.050623 0,0.466943 0.0651,0.875519 0.19755,1.221237 0.13694,0.347962 0.35021,0.608373 0.63756,0.781232 0.28735,0.168369 0.59715,0.251431 0.93388,0.251431 0.40633,0 0.74981,-0.116736 1.03267,-0.350207 0.28061,-0.233472 0.46919,-0.57919 0.56572,-1.041644 z m 0,0"
       style="fill:#000000;fill-opacity:1;fill-rule:nonzero;stroke:none;stroke-width:0.766266"
       aria-label="C" />
    <path
       id="path8"
       d="m 181.59771,42.592009 v -5.486587 h 0.72735 v 2.253901 h 2.84656 v -2.253901 h 0.72736 v 5.486587 h -0.72736 V 40.00586 h -2.84656 v 2.586149 z m 0,0"
       style="fill:#000000;fill-opacity:1;fill-rule:nonzero;stroke:none;stroke-width:0.766266"
       aria-label="H" />
    <path
       id="path9"
       d="m 186.76327,43.456303 0.53878,-0.07184 c 0.0584,0.305309 0.16388,0.527556 0.31429,0.664496 0.14817,0.13245 0.32776,0.197553 0.53878,0.197553 0.25592,0 0.47144,-0.08531 0.64654,-0.260411 0.17286,-0.179593 0.26041,-0.397351 0.26041,-0.655516 0,-0.244697 -0.0808,-0.448985 -0.24245,-0.610619 -0.16163,-0.161634 -0.36817,-0.242451 -0.6196,-0.242451 -0.10326,0 -0.22898,0.02245 -0.37714,0.06286 l 0.0628,-0.475923 c 0.0359,0.0067 0.0629,0.009 0.0808,0.009 0.23347,0 0.44,-0.05837 0.6196,-0.179594 0.18408,-0.118981 0.27837,-0.305309 0.27837,-0.55674 0,-0.197553 -0.0696,-0.361432 -0.20653,-0.493883 -0.13245,-0.130205 -0.30307,-0.197553 -0.51185,-0.197553 -0.21102,0 -0.38612,0.06735 -0.5298,0.197553 -0.13918,0.132451 -0.22449,0.330004 -0.26041,0.592659 l -0.53878,-0.0898 c 0.0651,-0.363677 0.21551,-0.646537 0.44898,-0.84409 0.23348,-0.197553 0.52307,-0.296329 0.87103,-0.296329 0.23797,0 0.45797,0.05163 0.65552,0.152654 0.20204,0.103267 0.35919,0.242452 0.46694,0.422045 0.10776,0.179594 0.16164,0.368167 0.16164,0.56572 0,0.193064 -0.0516,0.365923 -0.15266,0.520822 -0.10326,0.157145 -0.25592,0.27837 -0.45796,0.368167 0.26266,0.06061 0.46694,0.186329 0.61062,0.377147 0.14367,0.186328 0.21551,0.422045 0.21551,0.709395 0,0.383881 -0.14143,0.709395 -0.42204,0.978785 -0.28286,0.264901 -0.63532,0.395106 -1.05961,0.395106 -0.38388,0 -0.7049,-0.112246 -0.96082,-0.341228 -0.25143,-0.233471 -0.39511,-0.532046 -0.43103,-0.897968 z m 0,0"
       style="fill:#000000;fill-opacity:1;fill-rule:nonzero;stroke:none;stroke-width:0.766266"
       aria-label="3" />
    <path
       id="path10"
       d="m 175.54633,106.32311 0.56703,-0.0153 0.45976,0.3295 0.19157,0.53639 -0.16858,0.54404 -0.45209,0.34482 -0.4521,0.33716 -0.16858,0.54405 0.1839,0.53639 0.46743,0.32949 0.56703,-0.008 0.56704,-0.0153 0.46742,0.3295 0.18391,0.53638 -0.16858,0.54405 -0.4521,0.33716 -0.4521,0.34482 -0.16857,0.54405 0.19156,0.53639 0.45976,0.32949 0.56704,-0.0153 0.5747,-0.008 0.45976,0.3295 0.19156,0.53638 -0.16857,0.54405 -0.4521,0.33716 -0.45976,0.34482 -0.16092,0.54405 0.18391,0.53639 0.46742,0.32183 0.56704,-0.008 0.56703,-0.008 0.46743,0.32183 0.1839,0.53639 -0.16858,0.54405 -0.4521,0.34482"
       style="fill:none;stroke:#000000;stroke-width:0.551712;stroke-linecap:round;stroke-linejoin:round;stroke-miterlimit:10;stroke-dasharray:none;stroke-opacity:1" />
    <path
       id="path11"
       d="M 136.37479,80.837093 V 96.101117"
       style="fill:none;stroke:#000000;stroke-width:0.551712;stroke-linecap:round;stroke-linejoin:round;stroke-miterlimit:10;stroke-dasharray:none;stroke-opacity:1" />
    <path
       id="path12"
       d="M 136.37479,80.837093 123.1567,73.20508"
       style="fill:none;stroke:#000000;stroke-width:0.551712;stroke-linecap:round;stroke-linejoin:round;stroke-miterlimit:10;stroke-dasharray:none;stroke-opacity:1" />
    <path
       id="path13"
       d="M 133.98404,82.430927 122.9728,76.070916"
       style="fill:none;stroke:#000000;stroke-width:0.551712;stroke-linecap:round;stroke-linejoin:round;stroke-miterlimit:10;stroke-dasharray:none;stroke-opacity:1" />
    <path
       id="path14"
       d="M 136.37479,96.101117 123.1567,103.73313"
       style="fill:none;stroke:#000000;stroke-width:0.551712;stroke-linecap:round;stroke-linejoin:round;stroke-miterlimit:10;stroke-dasharray:none;stroke-opacity:1" />
    <path
       id="path15"
       d="M 133.98404,94.507283 122.9728,100.86729"
       style="fill:none;stroke:#000000;stroke-width:0.551712;stroke-linecap:round;stroke-linejoin:round;stroke-miterlimit:10;stroke-dasharray:none;stroke-opacity:1" />
    <path
       id="path16"
       d="m 123.1567,73.20508 -13.21809,7.632013"
       style="fill:none;stroke:#000000;stroke-width:0.551712;stroke-linecap:round;stroke-linejoin:round;stroke-miterlimit:10;stroke-dasharray:none;stroke-opacity:1" />
    <path
       id="path17"
       d="M 123.1567,103.73313 109.93861,96.101117"
       style="fill:none;stroke:#000000;stroke-width:0.551712;stroke-linecap:round;stroke-linejoin:round;stroke-miterlimit:10;stroke-dasharray:none;stroke-opacity:1" />
    <path
       id="path18"
       d="M 109.93861,80.837093 V 96.101117"
       style="fill:none;stroke:#000000;stroke-width:0.551712;stroke-linecap:round;stroke-linejoin:round;stroke-miterlimit:10;stroke-dasharray:none;stroke-opacity:1" />
    <path
       id="path19"
       d="m 112.51326,82.109095 v 12.72002"
       style="fill:none;stroke:#000000;stroke-width:0.551712;stroke-linecap:round;stroke-linejoin:round;stroke-miterlimit:10;stroke-dasharray:none;stroke-opacity:1" />
    <path
       id="path20"
       d="m 123.1567,103.73313 v 15.26402"
       style="fill:none;stroke:#000000;stroke-width:0.551712;stroke-linecap:round;stroke-linejoin:round;stroke-miterlimit:10;stroke-dasharray:none;stroke-opacity:1" />
    <path
       id="path21"
       d="m 123.1567,118.99715 -12.45949,7.19525"
       style="fill:none;stroke:#000000;stroke-width:0.551712;stroke-linecap:round;stroke-linejoin:round;stroke-miterlimit:10;stroke-dasharray:none;stroke-opacity:1" />
    <path
       id="path22"
       d="m 123.1567,118.99715 13.21809,7.63202"
       style="fill:none;stroke:#000000;stroke-width:0.551712;stroke-linecap:round;stroke-linejoin:round;stroke-miterlimit:10;stroke-dasharray:none;stroke-opacity:1" />
    <path
       id="path23"
       d="m 163.20944,117.38033 3.6321,10.54383"
       style="fill:none;stroke:#000000;stroke-width:0.551712;stroke-linecap:round;stroke-linejoin:round;stroke-miterlimit:10;stroke-dasharray:none;stroke-opacity:1" />
    <path
       id="path24"
       d="m 163.20944,117.38033 -4.97307,-14.42879"
       style="fill:none;stroke:#000000;stroke-width:0.551712;stroke-linecap:round;stroke-linejoin:round;stroke-miterlimit:10;stroke-dasharray:none;stroke-opacity:1" />
    <path
       id="path25"
       d="M 158.48158,101.6872 146.96459,99.449701"
       style="fill:none;stroke:#000000;stroke-width:0.551712;stroke-linecap:round;stroke-linejoin:round;stroke-miterlimit:10;stroke-dasharray:none;stroke-opacity:1" />
    <path
       id="path26"
       d="m 157.99117,104.21588 -11.02658,-2.13789"
       style="fill:none;stroke:#000000;stroke-width:0.551712;stroke-linecap:round;stroke-linejoin:round;stroke-miterlimit:10;stroke-dasharray:none;stroke-opacity:1" />
    <path
       id="path27"
       d="m 158.23637,102.95154 6.58223,-7.578376"
       style="fill:none;stroke:#000000;stroke-width:0.551712;stroke-linecap:round;stroke-linejoin:round;stroke-miterlimit:10;stroke-dasharray:none;stroke-opacity:1" />
    <path
       id="path28"
       d="M 166.87986,87.465296 163.27074,76.998098"
       style="fill:none;stroke:#000000;stroke-width:0.551712;stroke-linecap:round;stroke-linejoin:round;stroke-miterlimit:10;stroke-dasharray:none;stroke-opacity:1" />
    <path
       id="path29"
       d="M 163.27074,76.998098 173.27818,65.473453"
       style="fill:none;stroke:#000000;stroke-width:0.551712;stroke-linecap:round;stroke-linejoin:round;stroke-miterlimit:10;stroke-dasharray:none;stroke-opacity:1" />
    <path
       id="path30"
       d="M 173.27818,65.473453 168.30511,51.044659"
       style="fill:none;stroke:#000000;stroke-width:0.551712;stroke-linecap:round;stroke-linejoin:round;stroke-miterlimit:10;stroke-dasharray:none;stroke-opacity:1" />
    <path
       id="path31"
       d="m 168.30511,51.044659 6.54392,-7.532398"
       style="fill:none;stroke:#000000;stroke-width:0.551712;stroke-linecap:round;stroke-linejoin:round;stroke-miterlimit:10;stroke-dasharray:none;stroke-opacity:1" />
    <path
       id="path32"
       d="m 163.20944,117.38033 13.60123,-4.68955"
       style="fill:none;stroke:#000000;stroke-width:0.551712;stroke-linecap:round;stroke-linejoin:round;stroke-miterlimit:10;stroke-dasharray:none;stroke-opacity:1" />
    <path
       id="path33"
       d="m 136.37479,126.62917 26.83465,-9.24884"
       style="fill:none;stroke:#000000;stroke-width:0.551712;stroke-linecap:round;stroke-linejoin:round;stroke-miterlimit:10;stroke-dasharray:none;stroke-opacity:1" />
    <path
       id="path34"
       d="m 116.62045,113.57965 h 2.20685 v 0.18391 h -1.65514 v 18.02258 h 1.65514 v 0.1839 h -2.20685 z"
       style="fill:#000000;fill-opacity:1;fill-rule:evenodd;stroke:#000000;stroke-width:0.0183904;stroke-linecap:round;stroke-linejoin:round;stroke-miterlimit:10;stroke-dasharray:none;stroke-opacity:1" />
    <path
       id="path35"
       d="m 145.12556,131.23443 h -2.20685 v -0.18391 h 1.65513 v -18.02258 h -1.65513 v -0.1839 h 2.20685 z"
       style="fill:#000000;fill-opacity:1;fill-rule:evenodd;stroke:#000000;stroke-width:0.0183904;stroke-linecap:round;stroke-linejoin:round;stroke-miterlimit:10;stroke-dasharray:none;stroke-opacity:1" />
    <path
       id="path36"
       d="m 146.48041,136.20072 0.83511,-3.96902 h 0.61062 l -0.14367,0.69143 c 0.26265,-0.27388 0.51184,-0.47143 0.74531,-0.59265 0.23347,-0.12572 0.46919,-0.18858 0.7094,-0.18858 0.32326,0 0.5747,0.0876 0.75429,0.26041 0.18408,0.17511 0.27837,0.40858 0.27837,0.70042 0,0.14367 -0.0337,0.3749 -0.0988,0.69143 l -0.50286,2.40656 h -0.67348 l 0.52981,-2.51431 c 0.0471,-0.2447 0.0718,-0.42654 0.0718,-0.54776 0,-0.13021 -0.0449,-0.23572 -0.13469,-0.31429 -0.0898,-0.0831 -0.22225,-0.12572 -0.39511,-0.12572 -0.34796,0 -0.65552,0.12572 -0.92491,0.37715 -0.26939,0.24694 -0.46694,0.67123 -0.59266,1.27511 l -0.38612,1.84982 z m 0,0"
       style="fill:#000000;fill-opacity:1;fill-rule:nonzero;stroke:none;stroke-width:0.766266"
       aria-label="n" />
    <path
       id="path37"
       d="m 152.48171,112.84404 h 2.20685 v 0.1839 h -1.65514 v 18.02258 h 1.65514 v 0.18391 h -2.20685 z"
       style="fill:#000000;fill-opacity:1;fill-rule:evenodd;stroke:#000000;stroke-width:0.0183904;stroke-linecap:round;stroke-linejoin:round;stroke-miterlimit:10;stroke-dasharray:none;stroke-opacity:1" />
    <path
       id="path38"
       d="m 173.26285,124.06217 h -2.20684 v -0.1839 h 1.65513 v -18.02258 h -1.65513 v -0.18391 h 2.20684 z"
       style="fill:#000000;fill-opacity:1;fill-rule:evenodd;stroke:#000000;stroke-width:0.0183904;stroke-linecap:round;stroke-linejoin:round;stroke-miterlimit:10;stroke-dasharray:none;stroke-opacity:1" />
    <path
       id="path39"
       d="m 174.61825,129.0282 0.82613,-3.96902 h 0.68246 l -0.14368,0.65551 c 0.25143,-0.28735 0.47593,-0.48041 0.67348,-0.58368 0.20204,-0.10775 0.41755,-0.16163 0.64654,-0.16163 0.25143,0 0.45796,0.0674 0.61959,0.19755 0.16613,0.12572 0.27837,0.3098 0.33225,0.54776 0.19756,-0.25143 0.40633,-0.43551 0.62858,-0.55674 0.22674,-0.12571 0.46245,-0.18857 0.7094,-0.18857 0.33449,0 0.58367,0.0786 0.74531,0.23347 0.16612,0.15715 0.25143,0.37715 0.25143,0.6645 0,0.12122 -0.0314,0.32102 -0.0898,0.60164 l -0.5298,2.55921 h -0.67347 l 0.53878,-2.62207 c 0.0471,-0.21551 0.0718,-0.37041 0.0718,-0.46694 0,-0.12572 -0.0426,-0.2245 -0.12571,-0.29633 -0.0786,-0.0763 -0.19306,-0.11674 -0.34123,-0.11674 -0.20429,0 -0.41082,0.0629 -0.6196,0.18857 -0.21102,0.12123 -0.3749,0.27837 -0.49388,0.47593 -0.11449,0.19755 -0.21327,0.50286 -0.29633,0.91592 l -0.40409,1.92166 h -0.68245 l 0.56572,-2.68493 c 0.0404,-0.17959 0.0629,-0.30755 0.0629,-0.38612 0,-0.13021 -0.0427,-0.23572 -0.12572,-0.31429 -0.0853,-0.0763 -0.18857,-0.11674 -0.31429,-0.11674 -0.19306,0 -0.3951,0.0629 -0.61062,0.18857 -0.21102,0.12123 -0.38163,0.28735 -0.51184,0.50287 -0.13245,0.21551 -0.24021,0.52755 -0.32327,0.93388 l -0.3951,1.87676 z m 0,0"
       style="fill:#000000;fill-opacity:1;fill-rule:nonzero;stroke:none;stroke-width:0.766266"
       aria-label="m" />
    <text
       xml:space="preserve"
       style="font-size:22.3333px;font-family:Arial;-inkscape-font-specification:'Arial, Normal';text-align:start;writing-mode:lr-tb;direction:ltr;text-anchor:start;fill:#000000;stroke-width:4.147;stroke-linecap:square;stroke-dashoffset:24.8697"
       x="0.68373632"
       y="158.27487"
       id="text39"><tspan
         sodipodi:role="line"
         x="0.68373632"
         y="158.27487"
         id="tspan40">Styrene co butyl methacrylate</tspan></text>
  </g>
</svg>
