<?xml version="1.0" encoding="UTF-8" standalone="no"?>
<!-- Created with Inkscape (http://www.inkscape.org/) -->

<svg
   version="1.1"
   id="svg1"
   width="276.11719"
   height="62.183594"
   viewBox="0 0 276.11719 62.183594"
   sodipodi:docname="103.svg"
   inkscape:version="1.4.2 (f4327f4, 2025-05-13)"
   xmlns:inkscape="http://www.inkscape.org/namespaces/inkscape"
   xmlns:sodipodi="http://sodipodi.sourceforge.net/DTD/sodipodi-0.dtd"
   xmlns="http://www.w3.org/2000/svg"
   xmlns:svg="http://www.w3.org/2000/svg">
  <defs
     id="defs1" />
  <sodipodi:namedview
     id="namedview1"
     pagecolor="#ffffff"
     bordercolor="#000000"
     borderopacity="0.25"
     inkscape:showpageshadow="2"
     inkscape:pageopacity="0.0"
     inkscape:pagecheckerboard="0"
     inkscape:deskcolor="#d1d1d1"
     inkscape:zoom="0.75568182"
     inkscape:cx="348.03008"
     inkscape:cy="467.12782"
     inkscape:window-width="1920"
     inkscape:window-height="991"
     inkscape:window-x="-9"
     inkscape:window-y="-9"
     inkscape:window-maximized="1"
     inkscape:current-layer="g1">
    <inkscape:page
       x="0"
       y="0"
       inkscape:label="1"
       id="page1"
       width="276.11719"
       height="62.183594"
       margin="0"
       bleed="0" />
  </sodipodi:namedview>
  <g
     id="g1"
     inkscape:groupmode="layer"
     inkscape:label="1"
     transform="translate(-59.894531,-60.375)">
    <path
       id="path1"
       d="m 0.47917969,-3.481875 c 0,-1.1865234 0.31933593,-2.1152344 0.96093751,-2.7890625 0.6386719,-0.6708984 1.4648437,-1.0078125 2.4726562,-1.0078125 0.65625,0 1.2480469,0.1582031 1.78125,0.46875 0.5302735,0.3134766 0.9316407,0.7558594 1.2070313,1.3242187 0.28125,0.5625 0.421875,1.2041016 0.421875,1.921875 0,0.7207032 -0.1494141,1.3681641 -0.4453125,1.9453125 -0.2900391,0.5712891 -0.703125,1.00488286 -1.2421875,1.3007813 -0.5332031,0.29003906 -1.1103516,0.43359375 -1.734375,0.43359375 -0.6738281,0 -1.2744141,-0.15820313 -1.8046875,-0.48046875 C 1.5631641,-0.6928125 1.1617969,-1.138125 0.88933594,-1.700625 0.61394531,-2.263125 0.47917969,-2.8549219 0.47917969,-3.481875 Z m 0.98437501,0.011719 c 0,0.8613282 0.2285156,1.5410157 0.6914062,2.0390625 0.459961,0.49218755 1.0429688,0.7382813 1.7460938,0.7382813 0.7089844,0 1.2949219,-0.24902344 1.7578125,-0.75 0.4599609,-0.4980469 0.6914062,-1.2099609 0.6914062,-2.1328125 0,-0.5771484 -0.102539,-1.0839844 -0.3046875,-1.5234375 C 5.8492969,-5.5355859 5.5592578,-5.8725 5.1783984,-6.106875 c -0.375,-0.2402344 -0.796875,-0.3632813 -1.265625,-0.3632813 -0.6738281,0 -1.2509765,0.2314454 -1.734375,0.6914063 -0.477539,0.4628906 -0.7148437,1.2304687 -0.7148437,2.308594 z m 0,0"
       style="fill:#000000;fill-opacity:1;fill-rule:nonzero;stroke:none"
       aria-label="O"
       transform="matrix(1.3333333,0,0,1.3333333,242.24,70.08)" />
    <path
       id="path2"
       d="m 5.870625,-2.5065234 0.9492187,0.234375 C 6.6235547,-1.4899219 6.2690625,-0.89519531 5.7534375,-0.49089844 5.2378125,-0.08367187 4.605,0.11847656 3.855,0.11847656 c -0.7675781,0 -1.3916016,-0.15527343 -1.875,-0.46875 C 1.4936719,-0.66082031 1.1245312,-1.1149219 0.86671875,-1.7096484 c -0.25195313,-0.5917969 -0.375,-1.2333985 -0.375,-1.921875 0,-0.741211 0.140625,-1.3886719 0.421875,-1.9453125 0.28710935,-0.553711 0.69433595,-0.975586 1.21874995,-1.265625 0.5302735,-0.2871094 1.1132813,-0.4335938 1.7460938,-0.4335938 0.7089844,0 1.3066406,0.1845703 1.7929687,0.5507813 0.4921875,0.3603515 0.834961,0.8730468 1.03125,1.5351562 l -0.9375,0.2226563 C 5.6010937,-5.4889453 5.3579297,-5.8698047 5.0385937,-6.1041797 4.7251172,-6.3444141 4.3296094,-6.4674609 3.855,-6.4674609 c -0.5478516,0 -1.0078125,0.1347656 -1.3828125,0.3984375 -0.3691406,0.2666015 -0.6269531,0.6210937 -0.7734375,1.0664062 -0.1494141,0.4394531 -0.2226563,0.8964844 -0.2226563,1.3710938 0,0.609375 0.084961,1.1425781 0.2578125,1.59375 0.178711,0.4541015 0.4570313,0.7939453 0.8320313,1.0195312 0.375,0.21972658 0.7792969,0.32812501 1.21875,0.32812501 0.5302734,0 0.9785156,-0.15234375 1.3476562,-0.45703121 0.366211,-0.3046875 0.6123047,-0.7558594 0.7382813,-1.359375 z m 0,0"
       style="fill:#000000;fill-opacity:1;fill-rule:nonzero;stroke:none"
       aria-label="C"
       transform="matrix(1.3333333,0,0,1.3333333,311.36,109.76)" />
    <path
       id="path3"
       d="M 0.79757813,0.00128906 V -7.1588672 H 1.7467969 v 2.9414063 H 5.4616406 V -7.1588672 H 6.4108594 V 0.00128906 H 5.4616406 V -3.3737109 H 1.7467969 v 3.37499996 z m 0,0"
       style="fill:#000000;fill-opacity:1;fill-rule:nonzero;stroke:none"
       aria-label="H"
       transform="matrix(1.3333333,0,0,1.3333333,320.96,109.76)" />
    <path
       id="path4"
       d="m 0.33878906,-1.5107813 0.70312504,-0.09375 c 0.076172,0.3984375 0.2138671,0.68847661 0.4101562,0.86718755 0.1933594,0.17285156 0.4277344,0.2578125 0.703125,0.2578125 0.3339844,0 0.6152344,-0.11132813 0.84375,-0.33984375 0.2255859,-0.234375 0.3398438,-0.5185547 0.3398438,-0.8554688 0,-0.3193359 -0.1054688,-0.5859375 -0.3164063,-0.796875 C 2.8114453,-2.6826563 2.5419141,-2.788125 2.2137891,-2.788125 c -0.1347657,0 -0.2988282,0.029297 -0.4921875,0.082031 l 0.082031,-0.6210937 c 0.046875,0.00879 0.082031,0.011719 0.1054688,0.011719 0.3046875,0 0.5742187,-0.076172 0.8085937,-0.234375 0.2402344,-0.1552734 0.3632813,-0.3984375 0.3632813,-0.7265625 0,-0.2578125 -0.09082,-0.4716796 -0.2695313,-0.6445312 C 2.6385937,-5.0908594 2.4159375,-5.17875 2.1434766,-5.17875 c -0.2753907,0 -0.5039063,0.087891 -0.6914063,0.2578125 C 1.2704297,-4.7480859 1.1591016,-4.4902734 1.1122266,-4.1475 L 0.40910156,-4.2646875 c 0.0849609,-0.4746094 0.28125,-0.84375 0.5859375,-1.1015625 0.30468754,-0.2578125 0.68261714,-0.3867188 1.13671874,-0.3867188 0.3105469,0 0.5976563,0.067383 0.8554688,0.1992188 0.2636718,0.1347656 0.46875,0.3164062 0.609375,0.5507812 0.140625,0.234375 0.2109375,0.4804688 0.2109375,0.7382813 0,0.2519531 -0.067383,0.4775391 -0.1992188,0.6796875 -0.1347656,0.2050781 -0.3339844,0.3632812 -0.5976562,0.4804687 0.3427734,0.079102 0.609375,0.2431641 0.796875,0.4921875 0.1875,0.2431641 0.28125,0.5507813 0.28125,0.9257813 0,0.5009766 -0.1845704,0.92578125 -0.5507813,1.27734375 -0.3691406,0.34570312 -0.8291016,0.515625 -1.3828125,0.515625 -0.5009766,0 -0.9199219,-0.14648438 -1.25390624,-0.4453125 -0.328125,-0.3046875 -0.515625,-0.69433595 -0.5625,-1.17187505 z m 0,0"
       style="fill:#000000;fill-opacity:1;fill-rule:nonzero;stroke:none"
       aria-label="3"
       transform="matrix(1.3333333,0,0,1.3333333,330.56,113.28)" />
    <path
       id="path5"
       d="M 0.76136719,0.00128906 V -7.1588672 H 1.7340234 l 3.7617188,5.625 v -5.625 H 6.3980859 V 0.00128906 H 5.4254297 L 1.6637109,-5.6237109 v 5.62499996 z m 0,0"
       style="fill:#000000;fill-opacity:1;fill-rule:nonzero;stroke:none"
       aria-label="N"
       transform="matrix(1.3333333,0,0,1.3333333,219.52,109.76)" />
    <path
       id="path6"
       d="M 0.79769531,0.00128906 V -7.1588672 H 1.7469141 v 2.9414063 H 5.4617578 V -7.1588672 H 6.4109766 V 0.00128906 H 5.4617578 V -3.3737109 H 1.7469141 v 3.37499996 z m 0,0"
       style="fill:#000000;fill-opacity:1;fill-rule:nonzero;stroke:none"
       aria-label="H"
       transform="matrix(1.3333333,0,0,1.3333333,229.12,109.76)" />
    <path
       id="path7"
       d="M 0.76089844,-0.00105469 V -7.1612109 H 1.7335547 l 3.7617187,5.625 v -5.625 h 0.9023438 v 7.16015621 H 5.4249609 L 1.6632422,-5.6260547 v 5.62500001 z m 0,0"
       style="fill:#000000;fill-opacity:1;fill-rule:nonzero;stroke:none"
       aria-label="N"
       transform="matrix(1.3333333,0,0,1.3333333,58.88,122.56)" />
    <path
       id="path8"
       d="m 187.24,723.71 v 14.53"
       style="fill:none;stroke:#000000;stroke-width:0.72;stroke-linecap:round;stroke-linejoin:round;stroke-miterlimit:10;stroke-dasharray:none;stroke-opacity:1"
       transform="matrix(1.3333333,0,0,-1.3333333,0,1056)" />
    <path
       id="path9"
       d="m 183.88,723.71 v 14.53"
       style="fill:none;stroke:#000000;stroke-width:0.72;stroke-linecap:round;stroke-linejoin:round;stroke-miterlimit:10;stroke-dasharray:none;stroke-opacity:1"
       transform="matrix(1.3333333,0,0,-1.3333333,0,1056)" />
    <path
       id="path10"
       d="m 185.56,723.71 17.26,-9.96"
       style="fill:none;stroke:#000000;stroke-width:0.72;stroke-linecap:round;stroke-linejoin:round;stroke-miterlimit:10;stroke-dasharray:none;stroke-opacity:1"
       transform="matrix(1.3333333,0,0,-1.3333333,0,1056)" />
    <path
       id="path11"
       d="m 185.56,723.71 -8.51,-4.91"
       style="fill:none;stroke:#000000;stroke-width:0.72;stroke-linecap:round;stroke-linejoin:round;stroke-miterlimit:10;stroke-dasharray:none;stroke-opacity:1"
       transform="matrix(1.3333333,0,0,-1.3333333,0,1056)" />
    <path
       id="path12"
       d="m 202.82,713.75 17.25,9.96"
       style="fill:none;stroke:#000000;stroke-width:0.72;stroke-linecap:round;stroke-linejoin:round;stroke-miterlimit:10;stroke-dasharray:none;stroke-opacity:1"
       transform="matrix(1.3333333,0,0,-1.3333333,0,1056)" />
    <path
       id="path13"
       d="m 220.07,723.71 12.49,-7.2"
       style="fill:none;stroke:#000000;stroke-width:0.72;stroke-linecap:round;stroke-linejoin:round;stroke-miterlimit:10;stroke-dasharray:none;stroke-opacity:1"
       transform="matrix(1.3333333,0,0,-1.3333333,0,1056)" />
    <path
       id="path14"
       d="m 163.68,716.42 -12.63,7.29"
       style="fill:none;stroke:#000000;stroke-width:0.72;stroke-linecap:round;stroke-linejoin:round;stroke-miterlimit:10;stroke-dasharray:none;stroke-opacity:1"
       transform="matrix(1.3333333,0,0,-1.3333333,0,1056)" />
    <path
       id="path15"
       d="m 151.05,723.71 -16.99,-9.96"
       style="fill:none;stroke:#000000;stroke-width:0.72;stroke-linecap:round;stroke-linejoin:round;stroke-miterlimit:10;stroke-dasharray:none;stroke-opacity:1"
       transform="matrix(1.3333333,0,0,-1.3333333,0,1056)" />
    <path
       id="path16"
       d="m 134.06,713.75 -17.26,9.96"
       style="fill:none;stroke:#000000;stroke-width:0.72;stroke-linecap:round;stroke-linejoin:round;stroke-miterlimit:10;stroke-dasharray:none;stroke-opacity:1"
       transform="matrix(1.3333333,0,0,-1.3333333,0,1056)" />
    <path
       id="path17"
       d="M 116.8,723.71 99.55,713.88"
       style="fill:none;stroke:#000000;stroke-width:0.72;stroke-linecap:round;stroke-linejoin:round;stroke-miterlimit:10;stroke-dasharray:none;stroke-opacity:1"
       transform="matrix(1.3333333,0,0,-1.3333333,0,1056)" />
    <path
       id="path18"
       d="m 99.55,713.88 -17.26,9.83"
       style="fill:none;stroke:#000000;stroke-width:0.72;stroke-linecap:round;stroke-linejoin:round;stroke-miterlimit:10;stroke-dasharray:none;stroke-opacity:1"
       transform="matrix(1.3333333,0,0,-1.3333333,0,1056)" />
    <path
       id="path19"
       d="M 82.29,723.71 65.04,713.88"
       style="fill:none;stroke:#000000;stroke-width:0.72;stroke-linecap:round;stroke-linejoin:round;stroke-miterlimit:10;stroke-dasharray:none;stroke-opacity:1"
       transform="matrix(1.3333333,0,0,-1.3333333,0,1056)" />
    <path
       id="path20"
       d="M 65.04,713.88 52.32,706.55"
       style="fill:none;stroke:#000000;stroke-width:0.72;stroke-linecap:round;stroke-linejoin:round;stroke-miterlimit:10;stroke-dasharray:none;stroke-opacity:1"
       transform="matrix(1.3333333,0,0,-1.3333333,0,1056)" />
    <path
       id="path21"
       d="M 66.71,710.97 52.57,702.82"
       style="fill:none;stroke:#000000;stroke-width:0.72;stroke-linecap:round;stroke-linejoin:round;stroke-miterlimit:10;stroke-dasharray:none;stroke-opacity:1"
       transform="matrix(1.3333333,0,0,-1.3333333,0,1056)" />
    <path
       id="path22"
       d="M 63.36,716.8 50.25,709.24"
       style="fill:none;stroke:#000000;stroke-width:0.72;stroke-linecap:round;stroke-linejoin:round;stroke-miterlimit:10;stroke-dasharray:none;stroke-opacity:1"
       transform="matrix(1.3333333,0,0,-1.3333333,0,1056)" />
  </g>
</svg>
