<?xml version="1.0" encoding="UTF-8" standalone="no"?>
<!-- Created with Inkscape (http://www.inkscape.org/) -->

<svg
   version="1.1"
   id="svg1"
   width="130.79297"
   height="146.16016"
   viewBox="0 0 130.79297 146.16016"
   sodipodi:docname="165.svg"
   inkscape:version="1.4.2 (f4327f4, 2025-05-13)"
   xmlns:inkscape="http://www.inkscape.org/namespaces/inkscape"
   xmlns:sodipodi="http://sodipodi.sourceforge.net/DTD/sodipodi-0.dtd"
   xmlns="http://www.w3.org/2000/svg"
   xmlns:svg="http://www.w3.org/2000/svg">
  <defs
     id="defs1" />
  <sodipodi:namedview
     id="namedview1"
     pagecolor="#ffffff"
     bordercolor="#000000"
     borderopacity="0.25"
     inkscape:showpageshadow="2"
     inkscape:pageopacity="0.0"
     inkscape:pagecheckerboard="0"
     inkscape:deskcolor="#d1d1d1"
     inkscape:zoom="0.75568182"
     inkscape:cx="156.15038"
     inkscape:cy="363.90977"
     inkscape:window-width="1920"
     inkscape:window-height="991"
     inkscape:window-x="-9"
     inkscape:window-y="-9"
     inkscape:window-maximized="1"
     inkscape:current-layer="g1">
    <inkscape:page
       x="0"
       y="0"
       inkscape:label="1"
       id="page1"
       width="130.79297"
       height="146.16016"
       margin="0"
       bleed="0" />
  </sodipodi:namedview>
  <g
     id="g1"
     inkscape:groupmode="layer"
     inkscape:label="1"
     transform="translate(-251.30078,-164.05859)">
    <path
       id="path1"
       d="m 0.48140625,-3.4794141 c 0,-1.1865234 0.31933594,-2.1152343 0.96093755,-2.7890625 C 2.0810156,-6.939375 2.9071875,-7.2762891 3.915,-7.2762891 c 0.65625,0 1.2480469,0.1582032 1.78125,0.46875 0.5302734,0.3134766 0.9316406,0.7558594 1.2070313,1.3242188 0.28125,0.5625 0.421875,1.2041015 0.421875,1.921875 0,0.7207031 -0.1494141,1.368164 -0.4453125,1.9453125 -0.2900391,0.571289 -0.703125,1.0048828 -1.2421875,1.30078124 -0.5332032,0.29003906 -1.1103516,0.43359375 -1.734375,0.43359375 -0.6738282,0 -1.2744141,-0.15820313 -1.8046875,-0.48046875 -0.5332032,-0.328125 -0.9345704,-0.77343754 -1.2070313,-1.33593754 -0.27539062,-0.5625 -0.41015625,-1.1542968 -0.41015625,-1.78125 z m 0.98437505,0.011719 c 0,0.8613281 0.2285156,1.5410156 0.6914062,2.0390625 0.4599609,0.49218749 1.0429688,0.73828124 1.7460938,0.73828124 0.7089843,0 1.2949218,-0.24902344 1.7578125,-0.75000004 C 6.1210547,-1.9383984 6.3525,-2.6503125 6.3525,-3.5731641 6.3525,-4.1503125 6.2499609,-4.6571484 6.0478125,-5.0966016 5.8515234,-5.533125 5.5614844,-5.8700391 5.180625,-6.1044141 4.805625,-6.3446484 4.38375,-6.4676953 3.915,-6.4676953 c -0.6738281,0 -1.2509766,0.2314453 -1.734375,0.6914062 -0.4775391,0.4628907 -0.7148437,1.2304688 -0.7148437,2.308594 z m 0,0"
       style="fill:#000000;fill-opacity:1;fill-rule:nonzero;stroke:none"
       aria-label="O"
       transform="matrix(1.3333333,0,0,1.3333333,265.28,253.44)" />
    <path
       id="path2"
       d="m 0.47976563,-3.4794141 c 0,-1.1865234 0.31933593,-2.1152343 0.96093747,-2.7890625 0.6386719,-0.6708984 1.4648438,-1.0078125 2.4726563,-1.0078125 0.65625,0 1.2480469,0.1582032 1.78125,0.46875 0.5302734,0.3134766 0.9316406,0.7558594 1.2070312,1.3242188 0.28125,0.5625 0.421875,1.2041015 0.421875,1.921875 0,0.7207031 -0.149414,1.368164 -0.4453125,1.9453125 -0.290039,0.571289 -0.703125,1.0048828 -1.2421875,1.30078124 -0.5332031,0.29003906 -1.1103515,0.43359375 -1.734375,0.43359375 -0.6738281,0 -1.274414,-0.15820313 -1.8046875,-0.48046875 C 1.56375,-0.69035156 1.1623828,-1.1356641 0.88992188,-1.6981641 c -0.27539063,-0.5625 -0.41015625,-1.1542968 -0.41015625,-1.78125 z m 0.98437497,0.011719 c 0,0.8613281 0.2285157,1.5410156 0.6914063,2.0390625 0.4599609,0.49218749 1.0429687,0.73828124 1.7460937,0.73828124 0.7089844,0 1.2949219,-0.24902344 1.7578125,-0.75000004 0.459961,-0.4980468 0.6914063,-1.2099609 0.6914063,-2.1328125 0,-0.5771484 -0.1025391,-1.0839843 -0.3046875,-1.5234375 -0.1962891,-0.4365234 -0.4863281,-0.7734375 -0.8671875,-1.0078125 -0.375,-0.2402343 -0.796875,-0.3632812 -1.265625,-0.3632812 -0.6738281,0 -1.2509766,0.2314453 -1.734375,0.6914062 -0.4775391,0.4628907 -0.7148438,1.2304688 -0.7148438,2.3085938 z m 0,0"
       style="fill:#000000;fill-opacity:1;fill-rule:nonzero;stroke:none"
       aria-label="O"
       transform="matrix(1.3333333,0,0,1.3333333,311.04,253.44)" />
    <path
       id="path3"
       d="m 5.8721484,-2.5065234 0.9492188,0.234375 c -0.1962891,0.7822265 -0.5507813,1.37695309 -1.0664063,1.78124996 -0.515625,0.40722657 -1.1484375,0.609375 -1.8984375,0.609375 -0.7675781,0 -1.3916015,-0.15527343 -1.875,-0.46875 C 1.4951953,-0.66082031 1.1260547,-1.1149219 0.86824219,-1.7096484 c -0.25195313,-0.5917969 -0.375,-1.2333985 -0.375,-1.921875 0,-0.741211 0.140625,-1.3886719 0.421875,-1.9453125 0.28710941,-0.553711 0.69433591,-0.975586 1.21875001,-1.265625 0.5302734,-0.2871094 1.1132812,-0.4335938 1.7460937,-0.4335938 0.7089844,0 1.3066407,0.1845703 1.7929688,0.5507813 0.4921875,0.3603515 0.8349609,0.8730468 1.03125,1.5351562 l -0.9375,0.2226563 C 5.6026172,-5.4889453 5.3594531,-5.8698047 5.0401172,-6.1041797 4.7266406,-6.3444141 4.3311328,-6.4674609 3.8565234,-6.4674609 c -0.5478515,0 -1.0078125,0.1347656 -1.3828125,0.3984375 -0.3691406,0.2666015 -0.6269531,0.6210937 -0.7734375,1.0664062 -0.149414,0.4394531 -0.2226562,0.8964844 -0.2226562,1.3710938 0,0.609375 0.084961,1.1425781 0.2578125,1.59375 0.1787109,0.4541015 0.4570312,0.7939453 0.8320312,1.0195312 0.375,0.21972658 0.7792969,0.32812501 1.21875,0.32812501 0.5302735,0 0.9785157,-0.15234375 1.3476563,-0.45703121 0.3662109,-0.3046875 0.6123047,-0.7558594 0.7382812,-1.359375 z m 0,0"
       style="fill:#000000;fill-opacity:1;fill-rule:nonzero;stroke:none"
       aria-label="C"
       transform="matrix(1.3333333,0,0,1.3333333,357.44,173.76)" />
    <path
       id="path4"
       d="M 0.79617188,0.00128906 V -7.1588672 H 1.7453906 v 2.9414063 H 5.4602344 V -7.1588672 H 6.4094531 V 0.00128906 H 5.4602344 V -3.3737109 H 1.7453906 v 3.37499996 z m 0,0"
       style="fill:#000000;fill-opacity:1;fill-rule:nonzero;stroke:none"
       aria-label="H"
       transform="matrix(1.3333333,0,0,1.3333333,367.04,173.76)" />
    <path
       id="path5"
       d="m 0.3403125,-1.5107813 0.703125,-0.09375 c 0.076172,0.3984375 0.2138672,0.68847661 0.4101563,0.86718755 0.1933593,0.17285156 0.4277343,0.2578125 0.703125,0.2578125 0.3339843,0 0.6152343,-0.11132813 0.84375,-0.33984375 0.2255859,-0.234375 0.3398437,-0.5185547 0.3398437,-0.8554688 0,-0.3193359 -0.1054687,-0.5859375 -0.3164062,-0.796875 C 2.8129688,-2.6826563 2.5434375,-2.788125 2.2153125,-2.788125 c -0.1347656,0 -0.2988281,0.029297 -0.4921875,0.082031 l 0.082031,-0.6210937 c 0.046875,0.00879 0.082031,0.011719 0.1054687,0.011719 0.3046875,0 0.5742188,-0.076172 0.8085938,-0.234375 C 2.9594531,-3.7051172 3.0825,-3.9482813 3.0825,-4.2764063 3.0825,-4.5342188 2.99168,-4.7480859 2.8129688,-4.9209375 2.6401172,-5.0908594 2.4174609,-5.17875 2.145,-5.17875 c -0.2753906,0 -0.5039062,0.087891 -0.6914062,0.2578125 C 1.2719531,-4.7480859 1.160625,-4.4902734 1.11375,-4.1475 L 0.410625,-4.2646875 c 0.0849609,-0.4746094 0.28125,-0.84375 0.5859375,-1.1015625 0.3046875,-0.2578125 0.6826172,-0.3867188 1.1367188,-0.3867188 0.3105468,0 0.5976562,0.067383 0.8554687,0.1992188 0.2636719,0.1347656 0.46875,0.3164062 0.609375,0.5507812 0.140625,0.234375 0.2109375,0.4804688 0.2109375,0.7382813 0,0.2519531 -0.067383,0.4775391 -0.1992187,0.6796875 -0.1347657,0.2050781 -0.3339844,0.3632812 -0.5976563,0.4804687 0.3427734,0.079102 0.609375,0.2431641 0.796875,0.4921875 0.1875,0.2431641 0.28125,0.5507813 0.28125,0.9257813 0,0.5009766 -0.1845703,0.92578125 -0.5507812,1.27734375 -0.3691407,0.34570312 -0.8291016,0.515625 -1.3828125,0.515625 -0.5009766,0 -0.9199219,-0.14648438 -1.2539063,-0.4453125 -0.328125,-0.3046875 -0.515625,-0.69433595 -0.5625,-1.17187505 z m 0,0"
       style="fill:#000000;fill-opacity:1;fill-rule:nonzero;stroke:none"
       aria-label="3"
       transform="matrix(1.3333333,0,0,1.3333333,376.64,177.28)" />
    <path
       id="path6"
       d="m 5.870625,-2.5088672 0.9492187,0.234375 C 6.6235547,-1.4922656 6.2690625,-0.89753906 5.7534375,-0.49324219 5.2378125,-0.08601562 4.605,0.11613281 3.855,0.11613281 c -0.7675781,0 -1.3916016,-0.15527343 -1.875,-0.46875 C 1.4936719,-0.66316406 1.1245312,-1.1172656 0.86671875,-1.7119922 c -0.25195313,-0.5917969 -0.375,-1.2333984 -0.375,-1.921875 0,-0.7412109 0.140625,-1.3886719 0.421875,-1.9453125 0.28710935,-0.5537109 0.69433595,-0.9755859 1.21874995,-1.265625 0.5302735,-0.2871094 1.1132813,-0.4335937 1.7460938,-0.4335937 0.7089844,0 1.3066406,0.1845703 1.7929687,0.5507812 0.4921875,0.3603516 0.834961,0.8730469 1.03125,1.5351563 l -0.9375,0.2226562 C 5.6010937,-5.4912891 5.3579297,-5.8721484 5.0385937,-6.1065234 4.7251172,-6.3467578 4.3296094,-6.4698047 3.855,-6.4698047 c -0.5478516,0 -1.0078125,0.1347656 -1.3828125,0.3984375 -0.3691406,0.2666016 -0.6269531,0.6210938 -0.7734375,1.0664063 -0.1494141,0.4394531 -0.2226563,0.8964843 -0.2226563,1.3710937 0,0.609375 0.084961,1.1425781 0.2578125,1.59375 0.178711,0.4541016 0.4570313,0.7939453 0.8320313,1.0195313 0.375,0.21972653 0.7792969,0.32812496 1.21875,0.32812496 0.5302734,0 0.9785156,-0.15234375 1.3476562,-0.45703126 0.366211,-0.3046875 0.6123047,-0.7558594 0.7382813,-1.359375 z m 0,0"
       style="fill:#000000;fill-opacity:1;fill-rule:nonzero;stroke:none"
       aria-label="C"
       transform="matrix(1.3333333,0,0,1.3333333,311.36,306.56)" />
    <path
       id="path7"
       d="M 0.79757813,-0.00105469 V -7.1612109 H 1.7467969 v 2.9414062 h 3.7148437 v -2.9414062 h 0.9492188 v 7.16015621 H 5.4616406 V -3.3760547 H 1.7467969 v 3.37500001 z m 0,0"
       style="fill:#000000;fill-opacity:1;fill-rule:nonzero;stroke:none"
       aria-label="H"
       transform="matrix(1.3333333,0,0,1.3333333,320.96,306.56)" />
    <path
       id="path8"
       d="m 0.33878906,-1.513125 0.70312504,-0.09375 c 0.076172,0.3984375 0.2138671,0.68847656 0.4101562,0.8671875 0.1933594,0.17285156 0.4277344,0.2578125 0.703125,0.2578125 0.3339844,0 0.6152344,-0.11132813 0.84375,-0.33984375 0.2255859,-0.23437505 0.3398438,-0.51855465 0.3398438,-0.85546875 0,-0.3193359 -0.1054688,-0.5859375 -0.3164063,-0.796875 C 2.8114453,-2.685 2.5419141,-2.7904688 2.2137891,-2.7904688 c -0.1347657,0 -0.2988282,0.029297 -0.4921875,0.082031 l 0.082031,-0.6210938 c 0.046875,0.00879 0.082031,0.011719 0.1054688,0.011719 0.3046875,0 0.5742187,-0.076172 0.8085937,-0.234375 0.2402344,-0.1552734 0.3632813,-0.3984375 0.3632813,-0.7265625 0,-0.2578125 -0.09082,-0.4716797 -0.2695313,-0.6445313 -0.1728516,-0.1699218 -0.3955078,-0.2578125 -0.6679687,-0.2578125 -0.2753907,0 -0.5039063,0.087891 -0.6914063,0.2578125 -0.1816406,0.1728516 -0.2929687,0.4306641 -0.3398437,0.7734375 L 0.40910156,-4.2670313 c 0.0849609,-0.4746093 0.28125,-0.84375 0.5859375,-1.1015625 0.30468754,-0.2578125 0.68261714,-0.3867187 1.13671874,-0.3867187 0.3105469,0 0.5976563,0.067383 0.8554688,0.1992187 0.2636718,0.1347657 0.46875,0.3164063 0.609375,0.5507813 0.140625,0.234375 0.2109375,0.4804687 0.2109375,0.7382812 0,0.2519532 -0.067383,0.4775391 -0.1992188,0.6796875 -0.1347656,0.2050782 -0.3339844,0.3632813 -0.5976562,0.4804688 0.3427734,0.079102 0.609375,0.2431641 0.796875,0.4921875 0.1875,0.2431641 0.28125,0.5507812 0.28125,0.9257812 0,0.5009766 -0.1845704,0.9257813 -0.5507813,1.2773438 -0.3691406,0.34570312 -0.8291016,0.515625 -1.3828125,0.515625 -0.5009766,0 -0.9199219,-0.14648438 -1.25390624,-0.4453125 -0.328125,-0.3046875 -0.515625,-0.6943359 -0.5625,-1.171875 z m 0,0"
       style="fill:#000000;fill-opacity:1;fill-rule:nonzero;stroke:none"
       aria-label="3"
       transform="matrix(1.3333333,0,0,1.3333333,330.56,310.08)" />
    <path
       id="path9"
       d="m 5.8722656,-2.5088672 0.9492188,0.234375 c -0.1962891,0.7822266 -0.5507813,1.37695314 -1.0664063,1.78125001 -0.515625,0.40722657 -1.1484375,0.609375 -1.8984375,0.609375 -0.7675781,0 -1.3916015,-0.15527343 -1.875,-0.46875 C 1.4953125,-0.66316406 1.1261719,-1.1172656 0.86835938,-1.7119922 c -0.25195313,-0.5917969 -0.375,-1.2333984 -0.375,-1.921875 0,-0.7412109 0.140625,-1.3886719 0.421875,-1.9453125 0.28710942,-0.5537109 0.69433592,-0.9755859 1.21875002,-1.265625 0.5302734,-0.2871094 1.1132812,-0.4335937 1.7460937,-0.4335937 0.7089844,0 1.3066407,0.1845703 1.7929688,0.5507812 0.4921875,0.3603516 0.8349609,0.8730469 1.03125,1.5351563 l -0.9375,0.2226562 C 5.6027344,-5.4912891 5.3595703,-5.8721484 5.0402344,-6.1065234 4.7267578,-6.3467578 4.33125,-6.4698047 3.8566406,-6.4698047 c -0.5478515,0 -1.0078125,0.1347656 -1.3828125,0.3984375 -0.3691406,0.2666016 -0.6269531,0.6210938 -0.7734375,1.0664063 -0.149414,0.4394531 -0.2226562,0.8964843 -0.2226562,1.3710937 0,0.609375 0.084961,1.1425781 0.2578125,1.59375 0.1787109,0.4541016 0.4570312,0.7939453 0.8320312,1.0195313 0.375,0.21972653 0.7792969,0.32812496 1.21875,0.32812496 0.5302735,0 0.9785157,-0.15234375 1.3476563,-0.45703126 0.3662109,-0.3046875 0.6123047,-0.7558594 0.7382812,-1.359375 z m 0,0"
       style="fill:#000000;fill-opacity:1;fill-rule:nonzero;stroke:none"
       aria-label="C"
       transform="matrix(1.3333333,0,0,1.3333333,265.6,306.56)" />
    <path
       id="path10"
       d="M 0.79558594,-0.00105469 V -7.1612109 H 1.7448047 v 2.9414062 h 3.7148437 v -2.9414062 h 0.9492188 v 7.16015621 H 5.4596484 V -3.3760547 H 1.7448047 v 3.37500001 z m 0,0"
       style="fill:#000000;fill-opacity:1;fill-rule:nonzero;stroke:none"
       aria-label="H"
       transform="matrix(1.3333333,0,0,1.3333333,250.24,306.56)" />
    <path
       id="path11"
       d="m 4.0311328,-0.68109375 v 0.6796875 H 0.24597656 c -0.008789,-0.16992188 0.0175781,-0.33398438 0.0820313,-0.4921875 0.09375,-0.2578125 0.24609375,-0.50976565 0.45703125,-0.76171875 C 0.99597656,-1.5043359 1.3035937,-1.794375 1.7108203,-2.1225 2.3260547,-2.6293359 2.745,-3.0307031 2.9647266,-3.3295313 3.1815234,-3.6254297 3.2928516,-3.9096094 3.2928516,-4.185 c 0,-0.2724609 -0.1025391,-0.5039063 -0.3046875,-0.6914063 C 2.791875,-5.0697656 2.5340625,-5.169375 2.2147266,-5.169375 c -0.3369141,0 -0.6064454,0.1025391 -0.8085938,0.3046875 -0.2050781,0.2050781 -0.3046875,0.4863281 -0.3046875,0.84375 l -0.72656249,-0.082031 c 0.046875,-0.5390625 0.22851563,-0.9492187 0.55078125,-1.2304687 0.32812504,-0.28125 0.76464844,-0.421875 1.31250004,-0.421875 0.5449218,0 0.9785156,0.1523437 1.3007812,0.4570312 0.3193359,0.3046875 0.4804688,0.6855469 0.4804688,1.1367188 0,0.2285156 -0.046875,0.4541016 -0.140625,0.6796875 -0.09375,0.2197266 -0.2519532,0.4541016 -0.46875,0.703125 -0.2197266,0.2431641 -0.5800782,0.5742187 -1.078125,0.9960937 -0.421875,0.3603516 -0.6972657,0.6035157 -0.8203125,0.7265625 -0.1171875,0.12597661 -0.2167969,0.25195317 -0.2929688,0.37500005 z m 0,0"
       style="fill:#000000;fill-opacity:1;fill-rule:nonzero;stroke:none"
       aria-label="2"
       transform="matrix(1.3333333,0,0,1.3333333,259.84,310.08)" />
    <path
       id="path12"
       d="m 207.84,600.98 11.4,-6.58"
       style="fill:none;stroke:#000000;stroke-width:0.72;stroke-linecap:round;stroke-linejoin:round;stroke-miterlimit:10;stroke-dasharray:none;stroke-opacity:1"
       transform="matrix(1.3333333,0,0,-1.3333333,0,1056)" />
    <path
       id="path13"
       d="m 207.84,604.86 13.08,-7.55"
       style="fill:none;stroke:#000000;stroke-width:0.72;stroke-linecap:round;stroke-linejoin:round;stroke-miterlimit:10;stroke-dasharray:none;stroke-opacity:1"
       transform="matrix(1.3333333,0,0,-1.3333333,0,1056)" />
    <path
       id="path14"
       d="m 220.08,595.86 12.24,7.07"
       style="fill:none;stroke:#000000;stroke-width:0.72;stroke-linecap:round;stroke-linejoin:round;stroke-miterlimit:10;stroke-dasharray:none;stroke-opacity:1"
       transform="matrix(1.3333333,0,0,-1.3333333,0,1056)" />
    <path
       id="path15"
       d="M 220.08,595.86 V 575.94"
       style="fill:none;stroke:#000000;stroke-width:0.72;stroke-linecap:round;stroke-linejoin:round;stroke-miterlimit:10;stroke-dasharray:none;stroke-opacity:1"
       transform="matrix(1.3333333,0,0,-1.3333333,0,1056)" />
    <path
       id="path16"
       d="m 237.33,611.04 v 14.7"
       style="fill:none;stroke:#000000;stroke-width:0.72;stroke-linecap:round;stroke-linejoin:round;stroke-miterlimit:10;stroke-dasharray:none;stroke-opacity:1"
       transform="matrix(1.3333333,0,0,-1.3333333,0,1056)" />
    <path
       id="path17"
       d="m 237.33,625.74 17.25,9.96"
       style="fill:none;stroke:#000000;stroke-width:0.72;stroke-linecap:round;stroke-linejoin:round;stroke-miterlimit:10;stroke-dasharray:none;stroke-opacity:1"
       transform="matrix(1.3333333,0,0,-1.3333333,0,1056)" />
    <path
       id="path18"
       d="m 254.58,635.7 v 19.92"
       style="fill:none;stroke:#000000;stroke-width:0.72;stroke-linecap:round;stroke-linejoin:round;stroke-miterlimit:10;stroke-dasharray:none;stroke-opacity:1"
       transform="matrix(1.3333333,0,0,-1.3333333,0,1056)" />
    <path
       id="path19"
       d="m 254.58,655.62 12.54,7.24"
       style="fill:none;stroke:#000000;stroke-width:0.72;stroke-linecap:round;stroke-linejoin:round;stroke-miterlimit:10;stroke-dasharray:none;stroke-opacity:1"
       transform="matrix(1.3333333,0,0,-1.3333333,0,1056)" />
    <path
       id="path20"
       d="m 220.08,575.94 12.48,-7.21"
       style="fill:none;stroke:#000000;stroke-width:0.72;stroke-linecap:round;stroke-linejoin:round;stroke-miterlimit:10;stroke-dasharray:none;stroke-opacity:1"
       transform="matrix(1.3333333,0,0,-1.3333333,0,1056)" />
    <path
       id="path21"
       d="m 219.24,577.39 -11.88,-6.86"
       style="fill:none;stroke:#000000;stroke-width:0.72;stroke-linecap:round;stroke-linejoin:round;stroke-miterlimit:10;stroke-dasharray:none;stroke-opacity:1"
       transform="matrix(1.3333333,0,0,-1.3333333,0,1056)" />
    <path
       id="path22"
       d="m 220.92,574.48 -13.56,-7.82"
       style="fill:none;stroke:#000000;stroke-width:0.72;stroke-linecap:round;stroke-linejoin:round;stroke-miterlimit:10;stroke-dasharray:none;stroke-opacity:1"
       transform="matrix(1.3333333,0,0,-1.3333333,0,1056)" />
  </g>
</svg>
