<?xml version="1.0" encoding="UTF-8" standalone="no"?>
<!-- Created with Inkscape (http://www.inkscape.org/) -->

<svg
   version="1.1"
   id="svg1"
   width="131.42667"
   height="65.57106"
   viewBox="0 0 131.42667 65.57106"
   sodipodi:docname="180.svg"
   inkscape:version="1.4.2 (f4327f4, 2025-05-13)"
   xmlns:inkscape="http://www.inkscape.org/namespaces/inkscape"
   xmlns:sodipodi="http://sodipodi.sourceforge.net/DTD/sodipodi-0.dtd"
   xmlns="http://www.w3.org/2000/svg"
   xmlns:svg="http://www.w3.org/2000/svg">
  <defs
     id="defs1" />
  <sodipodi:namedview
     id="namedview1"
     pagecolor="#ffffff"
     bordercolor="#000000"
     borderopacity="0.25"
     inkscape:showpageshadow="2"
     inkscape:pageopacity="0.0"
     inkscape:pagecheckerboard="0"
     inkscape:deskcolor="#d1d1d1"
     inkscape:zoom="1.125947"
     inkscape:cx="109.68545"
     inkscape:cy="322.83936"
     inkscape:window-width="2560"
     inkscape:window-height="1369"
     inkscape:window-x="2552"
     inkscape:window-y="-8"
     inkscape:window-maximized="1"
     inkscape:current-layer="g1">
    <inkscape:page
       x="0"
       y="0"
       inkscape:label="1"
       id="page1"
       width="131.42667"
       height="65.57106"
       margin="0"
       bleed="0" />
  </sodipodi:namedview>
  <g
     id="g1"
     inkscape:groupmode="layer"
     inkscape:label="1"
     transform="translate(-298.06665,-205.01562)">
    <path
       id="path1"
       d="m 0.44460938,-2.2978125 0.90234372,-0.082031 c 0.038086,0.3603516 0.1347657,0.65625 0.2929688,0.890625 0.1552734,0.2285157 0.3925781,0.4101563 0.7148437,0.5507813 0.328125,0.140625 0.694336,0.2109375 1.1015625,0.2109375 0.3574219,0 0.6738282,-0.0527344 0.9492188,-0.1640625 0.28125,-0.10839844 0.4863281,-0.2519531 0.6210937,-0.4335938 0.131836,-0.1875 0.1992188,-0.3925781 0.1992188,-0.6210937 0,-0.2255859 -0.067383,-0.421875 -0.1992188,-0.5859375 C 4.9006641,-2.69625 4.6897266,-2.836875 4.3938281,-2.9540625 4.1975391,-3.0302344 3.7727344,-3.1474219 3.1164844,-3.305625 2.4602344,-3.4608984 1.9973438,-3.6103125 1.7336719,-3.7509375 1.3967578,-3.9296484 1.141875,-4.1523047 0.97195313,-4.4189063 c -0.1640625,-0.2636718 -0.24609375,-0.5625 -0.24609375,-0.890625 0,-0.3574218 0.0996094,-0.6943359 0.30468752,-1.0078125 0.2021484,-0.3105468 0.4980469,-0.5507812 0.890625,-0.7148437 0.3984375,-0.1640625 0.8378906,-0.2460938 1.3242187,-0.2460938 0.5214844,0 0.9873047,0.087891 1.3945313,0.2578125 0.4042969,0.1728516 0.7177734,0.4277344 0.9375,0.7617188 0.2167969,0.328125 0.3339844,0.7001953 0.3515625,1.1132812 l -0.9023438,0.070312 C 4.9709766,-5.5263281 4.8039844,-5.8661719 4.5227344,-6.0946875 4.2414844,-6.3290625 3.8254688,-6.44625 3.2805469,-6.44625 c -0.5712891,0 -0.9902344,0.1054687 -1.2539063,0.3164062 -0.2578125,0.2109375 -0.3867187,0.4658204 -0.3867187,0.7617188 0,0.2578125 0.087891,0.46875 0.2695312,0.6328125 0.1875,0.1640625 0.6621094,0.3369141 1.4296875,0.515625 0.7734375,0.1728516 1.3007813,0.3222656 1.5820313,0.4453125 0.421875,0.1962891 0.7294922,0.4423828 0.9257812,0.7382812 0.1933594,0.2900391 0.2929688,0.6298829 0.2929688,1.0195313 0,0.375 -0.1113281,0.7353516 -0.328125,1.078125 -0.2109375,0.33691406 -0.5244141,0.59765625 -0.9375,0.78515625 C 4.4670703,0.02542969 4.0100391,0.11625 3.5032031,0.11625 2.8528125,0.11625 2.3108203,0.0225 1.8742969,-0.165 1.4348438,-0.3525 1.0920703,-0.63375 0.84304688,-1.00875 0.59109375,-1.3896094 0.45925781,-1.8202734 0.44460938,-2.2978125 Z m 0,0"
       style="fill:#000000;fill-opacity:1;fill-rule:nonzero;stroke:none"
       aria-label="S"
       transform="matrix(1.3333333,0,0,1.3333333,359.04,214.72)" />
    <path
       id="path2"
       d="m 237.23,627.31 -13.32,-14.8"
       style="fill:none;stroke:#000000;stroke-width:0.72;stroke-linecap:round;stroke-linejoin:round;stroke-miterlimit:10;stroke-dasharray:none;stroke-opacity:1"
       transform="matrix(1.3333333,0,0,-1.3333333,0,1056)" />
    <path
       id="path3"
       d="M 238.62,623.83 227.51,611.49"
       style="fill:none;stroke:#000000;stroke-width:0.72;stroke-linecap:round;stroke-linejoin:round;stroke-miterlimit:10;stroke-dasharray:none;stroke-opacity:1"
       transform="matrix(1.3333333,0,0,-1.3333333,0,1056)" />
    <path
       id="path4"
       d="m 237.23,627.31 19.49,-4.14"
       style="fill:none;stroke:#000000;stroke-width:0.72;stroke-linecap:round;stroke-linejoin:round;stroke-miterlimit:10;stroke-dasharray:none;stroke-opacity:1"
       transform="matrix(1.3333333,0,0,-1.3333333,0,1056)" />
    <path
       id="path5"
       d="m 223.91,612.51 6.15,-18.95"
       style="fill:none;stroke:#000000;stroke-width:0.72;stroke-linecap:round;stroke-linejoin:round;stroke-miterlimit:10;stroke-dasharray:none;stroke-opacity:1"
       transform="matrix(1.3333333,0,0,-1.3333333,0,1056)" />
    <path
       id="path6"
       d="m 256.72,623.17 6.16,-18.95"
       style="fill:none;stroke:#000000;stroke-width:0.72;stroke-linecap:round;stroke-linejoin:round;stroke-miterlimit:10;stroke-dasharray:none;stroke-opacity:1"
       transform="matrix(1.3333333,0,0,-1.3333333,0,1056)" />
    <path
       id="path7"
       d="m 254.04,620.55 5.13,-15.79"
       style="fill:none;stroke:#000000;stroke-width:0.72;stroke-linecap:round;stroke-linejoin:round;stroke-miterlimit:10;stroke-dasharray:none;stroke-opacity:1"
       transform="matrix(1.3333333,0,0,-1.3333333,0,1056)" />
    <path
       id="path8"
       d="m 256.72,623.17 11.6,8.43"
       style="fill:none;stroke:#000000;stroke-width:0.72;stroke-linecap:round;stroke-linejoin:round;stroke-miterlimit:10;stroke-dasharray:none;stroke-opacity:1"
       transform="matrix(1.3333333,0,0,-1.3333333,0,1056)" />
    <path
       id="path9"
       d="m 230.06,593.56 19.49,-4.14"
       style="fill:none;stroke:#000000;stroke-width:0.72;stroke-linecap:round;stroke-linejoin:round;stroke-miterlimit:10;stroke-dasharray:none;stroke-opacity:1"
       transform="matrix(1.3333333,0,0,-1.3333333,0,1056)" />
    <path
       id="path10"
       d="m 232.38,596.5 16.24,-3.45"
       style="fill:none;stroke:#000000;stroke-width:0.72;stroke-linecap:round;stroke-linejoin:round;stroke-miterlimit:10;stroke-dasharray:none;stroke-opacity:1"
       transform="matrix(1.3333333,0,0,-1.3333333,0,1056)" />
    <path
       id="path11"
       d="M 262.88,604.22 H 282.8"
       style="fill:none;stroke:#000000;stroke-width:0.72;stroke-linecap:round;stroke-linejoin:round;stroke-miterlimit:10;stroke-dasharray:none;stroke-opacity:1"
       transform="matrix(1.3333333,0,0,-1.3333333,0,1056)" />
    <path
       id="path12"
       d="m 262.88,604.22 -13.33,-14.8"
       style="fill:none;stroke:#000000;stroke-width:0.72;stroke-linecap:round;stroke-linejoin:round;stroke-miterlimit:10;stroke-dasharray:none;stroke-opacity:1"
       transform="matrix(1.3333333,0,0,-1.3333333,0,1056)" />
    <path
       id="path13"
       d="m 276.96,631.88 11.99,-8.71"
       style="fill:none;stroke:#000000;stroke-width:0.72;stroke-linecap:round;stroke-linejoin:round;stroke-miterlimit:10;stroke-dasharray:none;stroke-opacity:1"
       transform="matrix(1.3333333,0,0,-1.3333333,0,1056)" />
    <path
       id="path14"
       d="m 282.8,604.22 13.32,-14.8"
       style="fill:none;stroke:#000000;stroke-width:0.72;stroke-linecap:round;stroke-linejoin:round;stroke-miterlimit:10;stroke-dasharray:none;stroke-opacity:1"
       transform="matrix(1.3333333,0,0,-1.3333333,0,1056)" />
    <path
       id="path15"
       d="M 286.4,605.24 297.51,592.9"
       style="fill:none;stroke:#000000;stroke-width:0.72;stroke-linecap:round;stroke-linejoin:round;stroke-miterlimit:10;stroke-dasharray:none;stroke-opacity:1"
       transform="matrix(1.3333333,0,0,-1.3333333,0,1056)" />
    <path
       id="path16"
       d="m 282.8,604.22 6.15,18.95"
       style="fill:none;stroke:#000000;stroke-width:0.72;stroke-linecap:round;stroke-linejoin:round;stroke-miterlimit:10;stroke-dasharray:none;stroke-opacity:1"
       transform="matrix(1.3333333,0,0,-1.3333333,0,1056)" />
    <path
       id="path17"
       d="m 296.12,589.42 19.49,4.14"
       style="fill:none;stroke:#000000;stroke-width:0.72;stroke-linecap:round;stroke-linejoin:round;stroke-miterlimit:10;stroke-dasharray:none;stroke-opacity:1"
       transform="matrix(1.3333333,0,0,-1.3333333,0,1056)" />
    <path
       id="path18"
       d="m 288.95,623.17 19.49,4.14"
       style="fill:none;stroke:#000000;stroke-width:0.72;stroke-linecap:round;stroke-linejoin:round;stroke-miterlimit:10;stroke-dasharray:none;stroke-opacity:1"
       transform="matrix(1.3333333,0,0,-1.3333333,0,1056)" />
    <path
       id="path19"
       d="m 291.27,620.23 16.24,3.45"
       style="fill:none;stroke:#000000;stroke-width:0.72;stroke-linecap:round;stroke-linejoin:round;stroke-miterlimit:10;stroke-dasharray:none;stroke-opacity:1"
       transform="matrix(1.3333333,0,0,-1.3333333,0,1056)" />
    <path
       id="path20"
       d="m 315.61,593.56 6.15,18.95"
       style="fill:none;stroke:#000000;stroke-width:0.72;stroke-linecap:round;stroke-linejoin:round;stroke-miterlimit:10;stroke-dasharray:none;stroke-opacity:1"
       transform="matrix(1.3333333,0,0,-1.3333333,0,1056)" />
    <path
       id="path21"
       d="m 312.93,596.18 5.13,15.79"
       style="fill:none;stroke:#000000;stroke-width:0.72;stroke-linecap:round;stroke-linejoin:round;stroke-miterlimit:10;stroke-dasharray:none;stroke-opacity:1"
       transform="matrix(1.3333333,0,0,-1.3333333,0,1056)" />
    <path
       id="path22"
       d="m 308.44,627.31 13.32,-14.8"
       style="fill:none;stroke:#000000;stroke-width:0.72;stroke-linecap:round;stroke-linejoin:round;stroke-miterlimit:10;stroke-dasharray:none;stroke-opacity:1"
       transform="matrix(1.3333333,0,0,-1.3333333,0,1056)" />
  </g>
</svg>
