<?xml version="1.0" encoding="UTF-8" standalone="no"?>
<!-- Created with Inkscape (http://www.inkscape.org/) -->

<svg
   version="1.1"
   id="svg1"
   width="99.787086"
   height="46.973331"
   viewBox="0 0 99.787086 46.973331"
   sodipodi:docname="87.svg"
   inkscape:version="1.4.2 (f4327f4, 2025-05-13)"
   xmlns:inkscape="http://www.inkscape.org/namespaces/inkscape"
   xmlns:sodipodi="http://sodipodi.sourceforge.net/DTD/sodipodi-0.dtd"
   xmlns="http://www.w3.org/2000/svg"
   xmlns:svg="http://www.w3.org/2000/svg">
  <defs
     id="defs1" />
  <sodipodi:namedview
     id="namedview1"
     pagecolor="#ffffff"
     bordercolor="#000000"
     borderopacity="0.25"
     inkscape:showpageshadow="2"
     inkscape:pageopacity="0.0"
     inkscape:pagecheckerboard="0"
     inkscape:deskcolor="#d1d1d1"
     inkscape:zoom="0.75568182"
     inkscape:cx="325.53383"
     inkscape:cy="438.01504"
     inkscape:window-width="1920"
     inkscape:window-height="991"
     inkscape:window-x="-9"
     inkscape:window-y="-9"
     inkscape:window-maximized="1"
     inkscape:current-layer="g1">
    <inkscape:page
       x="4.0153725e-07"
       y="8.6285451e-07"
       inkscape:label="1"
       id="page1"
       width="99.787086"
       height="46.973331"
       margin="0"
       bleed="0" />
  </sodipodi:namedview>
  <g
     id="g1"
     inkscape:groupmode="layer"
     inkscape:label="1"
     transform="translate(-82.306664,-89.78669)">
    <path
       id="path1"
       d="m 5.8721484,-2.5089844 0.9492188,0.234375 c -0.1962891,0.7822266 -0.5507813,1.37695315 -1.0664063,1.78125003 -0.515625,0.40722656 -1.1484375,0.609375 -1.8984375,0.609375 -0.7675781,0 -1.3916015,-0.15527344 -1.875,-0.46875 C 1.4951953,-0.66328125 1.1260547,-1.1173828 0.86824219,-1.7121094 c -0.25195313,-0.5917968 -0.375,-1.2333984 -0.375,-1.921875 0,-0.7412109 0.140625,-1.3886718 0.421875,-1.9453125 0.28710941,-0.5537109 0.69433591,-0.9755859 1.21875001,-1.265625 0.5302734,-0.2871093 1.1132812,-0.4335937 1.7460937,-0.4335937 0.7089844,0 1.3066407,0.1845703 1.7929688,0.5507812 0.4921875,0.3603516 0.8349609,0.8730469 1.03125,1.5351563 l -0.9375,0.2226562 C 5.6026172,-5.4914062 5.3594531,-5.8722656 5.0401172,-6.1066406 4.7266406,-6.346875 4.3311328,-6.4699219 3.8565234,-6.4699219 c -0.5478515,0 -1.0078125,0.1347657 -1.3828125,0.3984375 -0.3691406,0.2666016 -0.6269531,0.6210938 -0.7734375,1.0664063 -0.149414,0.4394531 -0.2226562,0.8964844 -0.2226562,1.3710937 0,0.609375 0.084961,1.1425782 0.2578125,1.59375 0.1787109,0.4541016 0.4570312,0.7939453 0.8320312,1.0195313 0.375,0.21972654 0.7792969,0.32812498 1.21875,0.32812498 0.5302735,0 0.9785157,-0.15234375 1.3476563,-0.45703128 0.3662109,-0.3046875 0.6123047,-0.7558593 0.7382812,-1.359375 z m 0,0"
       style="fill:#000000;fill-opacity:1;fill-rule:nonzero;stroke:none"
       aria-label="C"
       transform="matrix(1.3333333,0,0,1.3333333,157.44,118.4)" />
    <path
       id="path2"
       d="M 0.79617187,-0.00117187 V -7.1613281 H 1.7453906 v 2.9414062 h 3.7148438 v -2.9414062 h 0.9492187 v 7.16015623 H 5.4602344 V -3.3761719 H 1.7453906 v 3.37500003 z m 0,0"
       style="fill:#000000;fill-opacity:1;fill-rule:nonzero;stroke:none"
       aria-label="H"
       transform="matrix(1.3333333,0,0,1.3333333,167.04,118.4)" />
    <path
       id="path3"
       d="m 0.3403125,-1.5103125 0.703125,-0.09375 c 0.076172,0.3984375 0.2138672,0.68847656 0.4101562,0.8671875 0.1933594,0.17285156 0.4277344,0.2578125 0.703125,0.2578125 0.3339844,0 0.6152344,-0.11132813 0.84375,-0.33984375 0.225586,-0.23437505 0.3398438,-0.51855465 0.3398438,-0.85546875 0,-0.3193359 -0.1054688,-0.5859375 -0.3164063,-0.796875 -0.2109375,-0.2109375 -0.4804687,-0.3164063 -0.8085937,-0.3164063 -0.1347656,0 -0.2988281,0.029297 -0.4921875,0.082031 l 0.082031,-0.6210938 c 0.046875,0.00879 0.082031,0.011719 0.1054688,0.011719 0.3046875,0 0.5742187,-0.076172 0.8085937,-0.234375 C 2.9594531,-3.7046484 3.0825,-3.9478125 3.0825,-4.2759375 3.0825,-4.53375 2.9916797,-4.7476172 2.8129687,-4.9204688 2.6401172,-5.0903906 2.4174609,-5.1782813 2.145,-5.1782813 c -0.2753906,0 -0.5039063,0.087891 -0.6914063,0.2578125 C 1.2719531,-4.7476172 1.160625,-4.4898047 1.11375,-4.1470313 L 0.410625,-4.2642188 c 0.0849609,-0.4746093 0.28125,-0.84375 0.5859375,-1.1015625 C 1.30125,-5.6235938 1.6791797,-5.7525 2.1332812,-5.7525 c 0.3105469,0 0.5976563,0.067383 0.8554688,0.1992187 0.2636719,0.1347657 0.46875,0.3164063 0.609375,0.5507813 0.140625,0.234375 0.2109375,0.4804687 0.2109375,0.7382812 0,0.2519532 -0.067383,0.4775391 -0.1992188,0.6796875 -0.1347656,0.2050782 -0.3339843,0.3632813 -0.5976562,0.4804688 0.3427734,0.079102 0.609375,0.2431641 0.796875,0.4921875 0.1875,0.2431641 0.28125,0.5507812 0.28125,0.9257812 0,0.5009766 -0.1845703,0.9257813 -0.5507813,1.2773438 -0.3691406,0.34570312 -0.8291015,0.515625 -1.3828125,0.515625 -0.5009765,0 -0.9199218,-0.14648438 -1.2539062,-0.4453125 -0.328125,-0.3046875 -0.515625,-0.6943359 -0.5625,-1.171875 z m 0,0"
       style="fill:#000000;fill-opacity:1;fill-rule:nonzero;stroke:none"
       aria-label="3"
       transform="matrix(1.3333333,0,0,1.3333333,176.64,121.92)" />
    <path
       id="path4"
       d="m 91.97,724.3 9.96,-17.26"
       style="fill:none;stroke:#000000;stroke-width:0.72;stroke-linecap:round;stroke-linejoin:round;stroke-miterlimit:10;stroke-dasharray:none;stroke-opacity:1"
       transform="matrix(1.3333333,0,0,-1.3333333,0,1056)" />
    <path
       id="path5"
       d="M 91.97,724.3 H 72.05"
       style="fill:none;stroke:#000000;stroke-width:0.72;stroke-linecap:round;stroke-linejoin:round;stroke-miterlimit:10;stroke-dasharray:none;stroke-opacity:1"
       transform="matrix(1.3333333,0,0,-1.3333333,0,1056)" />
    <path
       id="path6"
       d="M 90.31,720.94 H 73.71"
       style="fill:none;stroke:#000000;stroke-width:0.72;stroke-linecap:round;stroke-linejoin:round;stroke-miterlimit:10;stroke-dasharray:none;stroke-opacity:1"
       transform="matrix(1.3333333,0,0,-1.3333333,0,1056)" />
    <path
       id="path7"
       d="M 101.93,707.04 91.97,689.79"
       style="fill:none;stroke:#000000;stroke-width:0.72;stroke-linecap:round;stroke-linejoin:round;stroke-miterlimit:10;stroke-dasharray:none;stroke-opacity:1"
       transform="matrix(1.3333333,0,0,-1.3333333,0,1056)" />
    <path
       id="path8"
       d="m 98.19,707.28 -8.3,-14.37"
       style="fill:none;stroke:#000000;stroke-width:0.72;stroke-linecap:round;stroke-linejoin:round;stroke-miterlimit:10;stroke-dasharray:none;stroke-opacity:1"
       transform="matrix(1.3333333,0,0,-1.3333333,0,1056)" />
    <path
       id="path9"
       d="m 101.93,707.04 h 15.19"
       style="fill:none;stroke:#000000;stroke-width:0.72;stroke-linecap:round;stroke-linejoin:round;stroke-miterlimit:10;stroke-dasharray:none;stroke-opacity:1"
       transform="matrix(1.3333333,0,0,-1.3333333,0,1056)" />
    <path
       id="path10"
       d="M 91.97,689.79 H 72.05"
       style="fill:none;stroke:#000000;stroke-width:0.72;stroke-linecap:round;stroke-linejoin:round;stroke-miterlimit:10;stroke-dasharray:none;stroke-opacity:1"
       transform="matrix(1.3333333,0,0,-1.3333333,0,1056)" />
    <path
       id="path11"
       d="m 72.05,689.79 -9.96,17.25"
       style="fill:none;stroke:#000000;stroke-width:0.72;stroke-linecap:round;stroke-linejoin:round;stroke-miterlimit:10;stroke-dasharray:none;stroke-opacity:1"
       transform="matrix(1.3333333,0,0,-1.3333333,0,1056)" />
    <path
       id="path12"
       d="m 74.13,692.91 -8.3,14.37"
       style="fill:none;stroke:#000000;stroke-width:0.72;stroke-linecap:round;stroke-linejoin:round;stroke-miterlimit:10;stroke-dasharray:none;stroke-opacity:1"
       transform="matrix(1.3333333,0,0,-1.3333333,0,1056)" />
    <path
       id="path13"
       d="m 62.09,707.04 9.96,17.26"
       style="fill:none;stroke:#000000;stroke-width:0.72;stroke-linecap:round;stroke-linejoin:round;stroke-miterlimit:10;stroke-dasharray:none;stroke-opacity:1"
       transform="matrix(1.3333333,0,0,-1.3333333,0,1056)" />
  </g>
</svg>
