<?xml version="1.0" encoding="UTF-8" standalone="no"?>
<!-- Created with Inkscape (http://www.inkscape.org/) -->

<svg
   version="1.1"
   id="svg1"
   width="299.94666"
   height="93.906662"
   viewBox="0 0 299.94666 93.906662"
   sodipodi:docname="92.svg"
   inkscape:version="1.4.2 (f4327f4, 2025-05-13)"
   xmlns:inkscape="http://www.inkscape.org/namespaces/inkscape"
   xmlns:sodipodi="http://sodipodi.sourceforge.net/DTD/sodipodi-0.dtd"
   xmlns="http://www.w3.org/2000/svg"
   xmlns:svg="http://www.w3.org/2000/svg">
  <defs
     id="defs1" />
  <sodipodi:namedview
     id="namedview1"
     pagecolor="#ffffff"
     bordercolor="#000000"
     borderopacity="0.25"
     inkscape:showpageshadow="2"
     inkscape:pageopacity="0.0"
     inkscape:pagecheckerboard="0"
     inkscape:deskcolor="#d1d1d1"
     inkscape:zoom="0.75568182"
     inkscape:cx="317.59398"
     inkscape:cy="460.51128"
     inkscape:window-width="1920"
     inkscape:window-height="991"
     inkscape:window-x="-9"
     inkscape:window-y="-9"
     inkscape:window-maximized="1"
     inkscape:current-layer="g1">
    <inkscape:page
       x="0"
       y="0"
       inkscape:label="1"
       id="page1"
       width="299.94666"
       height="93.906662"
       margin="0"
       bleed="0" />
  </sodipodi:namedview>
  <g
     id="g1"
     inkscape:groupmode="layer"
     inkscape:label="1"
     transform="translate(-89.853333,-66.866692)">
    <path
       id="path1"
       d="m 0.48117188,-3.4791797 c 0,-1.1865234 0.31933593,-2.1152344 0.96093752,-2.7890625 0.6386719,-0.6708984 1.4648437,-1.0078125 2.4726562,-1.0078125 0.65625,0 1.2480469,0.1582031 1.78125,0.46875 0.5302735,0.3134766 0.9316407,0.7558594 1.2070313,1.3242188 0.28125,0.5625 0.421875,1.2041015 0.421875,1.921875 0,0.7207031 -0.1494141,1.368164 -0.4453125,1.9453125 -0.2900391,0.571289 -0.703125,1.00488278 -1.2421875,1.30078121 -0.5332031,0.29003907 -1.1103516,0.43359375 -1.734375,0.43359375 -0.6738281,0 -1.2744141,-0.15820312 -1.8046875,-0.48046875 -0.5332031,-0.328125 -0.9345703,-0.77343751 -1.20703127,-1.33593751 -0.27539063,-0.5625 -0.41015625,-1.1542969 -0.41015625,-1.78125 z m 0.98437502,0.011719 c 0,0.8613281 0.2285156,1.5410156 0.6914062,2.0390625 0.459961,0.49218746 1.0429688,0.73828121 1.7460938,0.73828121 0.7089844,0 1.2949219,-0.24902343 1.7578125,-0.75000001 0.4599609,-0.4980469 0.6914062,-1.2099609 0.6914062,-2.1328125 0,-0.5771484 -0.102539,-1.0839844 -0.3046875,-1.5234375 -0.196289,-0.4365234 -0.4863281,-0.7734375 -0.8671875,-1.0078125 -0.375,-0.2402344 -0.796875,-0.3632812 -1.265625,-0.3632812 -0.6738281,0 -1.2509765,0.2314453 -1.734375,0.6914062 -0.477539,0.4628906 -0.7148437,1.2304688 -0.7148437,2.3085938 z m 0,0"
       style="fill:#000000;fill-opacity:1;fill-rule:nonzero;stroke:none"
       aria-label="O"
       transform="matrix(1.3333333,0,0,1.3333333,176.96,125.76)" />
    <path
       id="path2"
       d="m 0.481875,-3.4791797 c 0,-1.1865234 0.31933594,-2.1152344 0.9609375,-2.7890625 0.6386719,-0.6708984 1.4648437,-1.0078125 2.4726562,-1.0078125 0.65625,0 1.2480469,0.1582031 1.78125,0.46875 0.5302735,0.3134766 0.9316407,0.7558594 1.2070313,1.3242188 0.28125,0.5625 0.421875,1.2041015 0.421875,1.921875 0,0.7207031 -0.1494141,1.368164 -0.4453125,1.9453125 -0.2900391,0.571289 -0.703125,1.00488278 -1.2421875,1.30078121 -0.5332031,0.29003907 -1.1103516,0.43359375 -1.734375,0.43359375 -0.6738281,0 -1.2744141,-0.15820312 -1.8046875,-0.48046875 C 1.5658594,-0.69011719 1.1644922,-1.1354297 0.89203125,-1.6979297 0.61664062,-2.2604297 0.481875,-2.8522266 0.481875,-3.4791797 Z m 0.984375,0.011719 c 0,0.8613281 0.2285156,1.5410156 0.6914062,2.0390625 0.459961,0.49218746 1.0429688,0.73828121 1.7460938,0.73828121 0.7089844,0 1.2949219,-0.24902343 1.7578125,-0.75000001 0.4599609,-0.4980469 0.6914062,-1.2099609 0.6914062,-2.1328125 0,-0.5771484 -0.102539,-1.0839844 -0.3046875,-1.5234375 -0.196289,-0.4365234 -0.4863281,-0.7734375 -0.8671875,-1.0078125 -0.375,-0.2402344 -0.796875,-0.3632812 -1.265625,-0.3632812 -0.6738281,0 -1.2509765,0.2314453 -1.734375,0.6914062 C 1.7035547,-5.3131641 1.46625,-4.5455859 1.46625,-3.4674607 Z m 0,0"
       style="fill:#000000;fill-opacity:1;fill-rule:nonzero;stroke:none"
       aria-label="O"
       transform="matrix(1.3333333,0,0,1.3333333,153.92,85.76)" />
    <path
       id="path3"
       d="m 0.48058594,-3.4802344 c 0,-1.1865234 0.31933594,-2.1152344 0.96093746,-2.7890625 0.6386719,-0.6708984 1.4648438,-1.0078125 2.4726563,-1.0078125 0.65625,0 1.2480469,0.1582031 1.78125,0.46875 0.5302734,0.3134766 0.9316406,0.7558594 1.2070312,1.3242188 0.28125,0.5625 0.421875,1.2041015 0.421875,1.921875 0,0.7207031 -0.149414,1.368164 -0.4453125,1.9453125 -0.290039,0.571289 -0.703125,1.00488279 -1.2421875,1.30078122 -0.5332031,0.29003907 -1.1103515,0.43359375 -1.734375,0.43359375 -0.6738281,0 -1.274414,-0.15820312 -1.8046875,-0.48046875 -0.5332031,-0.328125 -0.9345703,-0.77343752 -1.20703121,-1.33593752 -0.27539063,-0.5625 -0.41015625,-1.1542969 -0.41015625,-1.78125 z m 0.98437496,0.011719 c 0,0.8613281 0.2285157,1.5410156 0.6914063,2.0390625 0.4599609,0.49218747 1.0429687,0.73828122 1.7460937,0.73828122 0.7089844,0 1.2949219,-0.24902343 1.7578125,-0.75000002 0.459961,-0.4980469 0.6914063,-1.2099609 0.6914063,-2.1328125 0,-0.5771484 -0.1025391,-1.0839844 -0.3046875,-1.5234375 -0.1962891,-0.4365234 -0.4863281,-0.7734375 -0.8671875,-1.0078125 -0.375,-0.2402344 -0.796875,-0.3632812 -1.265625,-0.3632812 -0.6738281,0 -1.2509766,0.2314453 -1.734375,0.6914062 -0.4775391,0.4628906 -0.7148438,1.2304688 -0.7148438,2.3085938 z m 0,0"
       style="fill:#000000;fill-opacity:1;fill-rule:nonzero;stroke:none"
       aria-label="O"
       transform="matrix(1.3333333,0,0,1.3333333,292.16,112.32)" />
    <path
       id="path4"
       d="m 0.47964844,-3.4802344 c 0,-1.1865234 0.31933594,-2.1152344 0.96093746,-2.7890625 0.6386719,-0.6708984 1.4648438,-1.0078125 2.4726563,-1.0078125 0.65625,0 1.2480469,0.1582031 1.78125,0.46875 0.5302734,0.3134766 0.9316406,0.7558594 1.2070312,1.3242188 0.28125,0.5625 0.421875,1.2041015 0.421875,1.921875 0,0.7207031 -0.149414,1.368164 -0.4453125,1.9453125 -0.290039,0.571289 -0.703125,1.00488279 -1.2421875,1.30078122 -0.5332031,0.29003907 -1.1103515,0.43359375 -1.734375,0.43359375 -0.6738281,0 -1.274414,-0.15820312 -1.8046875,-0.48046875 -0.5332031,-0.328125 -0.9345703,-0.77343752 -1.20703121,-1.33593752 -0.27539063,-0.5625 -0.41015625,-1.1542969 -0.41015625,-1.78125 z m 0.98437496,0.011719 c 0,0.8613281 0.2285157,1.5410156 0.6914063,2.0390625 0.4599609,0.49218747 1.0429687,0.73828122 1.7460937,0.73828122 0.7089844,0 1.2949219,-0.24902343 1.7578125,-0.75000002 0.459961,-0.4980469 0.6914063,-1.2099609 0.6914063,-2.1328125 0,-0.5771484 -0.1025391,-1.0839844 -0.3046875,-1.5234375 -0.1962891,-0.4365234 -0.4863281,-0.7734375 -0.8671875,-1.0078125 -0.375,-0.2402344 -0.796875,-0.3632812 -1.265625,-0.3632812 -0.6738281,0 -1.2509766,0.2314453 -1.734375,0.6914062 -0.4775391,0.4628906 -0.7148438,1.2304688 -0.7148438,2.3085938 z m 0,0"
       style="fill:#000000;fill-opacity:1;fill-rule:nonzero;stroke:none"
       aria-label="O"
       transform="matrix(1.3333333,0,0,1.3333333,314.88,152.32)" />
    <path
       id="path5"
       d="m 205.75,701.65 -17.26,9.96"
       style="fill:none;stroke:#000000;stroke-width:0.72;stroke-linecap:round;stroke-linejoin:round;stroke-miterlimit:10;stroke-dasharray:none;stroke-opacity:1"
       transform="matrix(1.3333333,0,0,-1.3333333,0,1056)" />
    <path
       id="path6"
       d="m 205.75,701.65 12.41,7.17"
       style="fill:none;stroke:#000000;stroke-width:0.72;stroke-linecap:round;stroke-linejoin:round;stroke-miterlimit:10;stroke-dasharray:none;stroke-opacity:1"
       transform="matrix(1.3333333,0,0,-1.3333333,0,1056)" />
    <path
       id="path7"
       d="m 188.49,711.61 -17.25,-9.96"
       style="fill:none;stroke:#000000;stroke-width:0.72;stroke-linecap:round;stroke-linejoin:round;stroke-miterlimit:10;stroke-dasharray:none;stroke-opacity:1"
       transform="matrix(1.3333333,0,0,-1.3333333,0,1056)" />
    <path
       id="path8"
       d="m 171.24,701.65 -17.25,9.96"
       style="fill:none;stroke:#000000;stroke-width:0.72;stroke-linecap:round;stroke-linejoin:round;stroke-miterlimit:10;stroke-dasharray:none;stroke-opacity:1"
       transform="matrix(1.3333333,0,0,-1.3333333,0,1056)" />
    <path
       id="path9"
       d="M 153.99,711.61 141.6,704.46"
       style="fill:none;stroke:#000000;stroke-width:0.72;stroke-linecap:round;stroke-linejoin:round;stroke-miterlimit:10;stroke-dasharray:none;stroke-opacity:1"
       transform="matrix(1.3333333,0,0,-1.3333333,0,1056)" />
    <path
       id="path10"
       d="m 131.76,704.53 -12.26,7.08"
       style="fill:none;stroke:#000000;stroke-width:0.72;stroke-linecap:round;stroke-linejoin:round;stroke-miterlimit:10;stroke-dasharray:none;stroke-opacity:1"
       transform="matrix(1.3333333,0,0,-1.3333333,0,1056)" />
    <path
       id="path11"
       d="m 121.18,711.61 v 14.87"
       style="fill:none;stroke:#000000;stroke-width:0.72;stroke-linecap:round;stroke-linejoin:round;stroke-miterlimit:10;stroke-dasharray:none;stroke-opacity:1"
       transform="matrix(1.3333333,0,0,-1.3333333,0,1056)" />
    <path
       id="path12"
       d="m 117.82,711.61 v 14.87"
       style="fill:none;stroke:#000000;stroke-width:0.72;stroke-linecap:round;stroke-linejoin:round;stroke-miterlimit:10;stroke-dasharray:none;stroke-opacity:1"
       transform="matrix(1.3333333,0,0,-1.3333333,0,1056)" />
    <path
       id="path13"
       d="m 119.5,711.61 -17.25,-9.96"
       style="fill:none;stroke:#000000;stroke-width:0.72;stroke-linecap:round;stroke-linejoin:round;stroke-miterlimit:10;stroke-dasharray:none;stroke-opacity:1"
       transform="matrix(1.3333333,0,0,-1.3333333,0,1056)" />
    <path
       id="path14"
       d="M 102.25,701.65 85,711.61"
       style="fill:none;stroke:#000000;stroke-width:0.72;stroke-linecap:round;stroke-linejoin:round;stroke-miterlimit:10;stroke-dasharray:none;stroke-opacity:1"
       transform="matrix(1.3333333,0,0,-1.3333333,0,1056)" />
    <path
       id="path15"
       d="M 102.25,701.65 V 681.74"
       style="fill:none;stroke:#000000;stroke-width:0.72;stroke-linecap:round;stroke-linejoin:round;stroke-miterlimit:10;stroke-dasharray:none;stroke-opacity:1"
       transform="matrix(1.3333333,0,0,-1.3333333,0,1056)" />
    <path
       id="path16"
       d="M 98.89,699.99 V 683.4"
       style="fill:none;stroke:#000000;stroke-width:0.72;stroke-linecap:round;stroke-linejoin:round;stroke-miterlimit:10;stroke-dasharray:none;stroke-opacity:1"
       transform="matrix(1.3333333,0,0,-1.3333333,0,1056)" />
    <path
       id="path17"
       d="M 85,711.61 67.75,701.65"
       style="fill:none;stroke:#000000;stroke-width:0.72;stroke-linecap:round;stroke-linejoin:round;stroke-miterlimit:10;stroke-dasharray:none;stroke-opacity:1"
       transform="matrix(1.3333333,0,0,-1.3333333,0,1056)" />
    <path
       id="path18"
       d="m 85.24,707.87 -14.37,-8.3"
       style="fill:none;stroke:#000000;stroke-width:0.72;stroke-linecap:round;stroke-linejoin:round;stroke-miterlimit:10;stroke-dasharray:none;stroke-opacity:1"
       transform="matrix(1.3333333,0,0,-1.3333333,0,1056)" />
    <path
       id="path19"
       d="M 67.75,701.65 V 681.74"
       style="fill:none;stroke:#000000;stroke-width:0.72;stroke-linecap:round;stroke-linejoin:round;stroke-miterlimit:10;stroke-dasharray:none;stroke-opacity:1"
       transform="matrix(1.3333333,0,0,-1.3333333,0,1056)" />
    <path
       id="path20"
       d="M 67.75,681.74 85,671.78"
       style="fill:none;stroke:#000000;stroke-width:0.72;stroke-linecap:round;stroke-linejoin:round;stroke-miterlimit:10;stroke-dasharray:none;stroke-opacity:1"
       transform="matrix(1.3333333,0,0,-1.3333333,0,1056)" />
    <path
       id="path21"
       d="m 70.87,683.81 14.37,-8.29"
       style="fill:none;stroke:#000000;stroke-width:0.72;stroke-linecap:round;stroke-linejoin:round;stroke-miterlimit:10;stroke-dasharray:none;stroke-opacity:1"
       transform="matrix(1.3333333,0,0,-1.3333333,0,1056)" />
    <path
       id="path22"
       d="m 85,671.78 17.25,9.96"
       style="fill:none;stroke:#000000;stroke-width:0.72;stroke-linecap:round;stroke-linejoin:round;stroke-miterlimit:10;stroke-dasharray:none;stroke-opacity:1"
       transform="matrix(1.3333333,0,0,-1.3333333,0,1056)" />
    <path
       id="path23"
       d="m 228,708.72 12.23,-7.07"
       style="fill:none;stroke:#000000;stroke-width:0.72;stroke-linecap:round;stroke-linejoin:round;stroke-miterlimit:10;stroke-dasharray:none;stroke-opacity:1"
       transform="matrix(1.3333333,0,0,-1.3333333,0,1056)" />
    <path
       id="path24"
       d="M 238.55,701.65 V 686.88"
       style="fill:none;stroke:#000000;stroke-width:0.72;stroke-linecap:round;stroke-linejoin:round;stroke-miterlimit:10;stroke-dasharray:none;stroke-opacity:1"
       transform="matrix(1.3333333,0,0,-1.3333333,0,1056)" />
    <path
       id="path25"
       d="M 241.91,701.65 V 686.88"
       style="fill:none;stroke:#000000;stroke-width:0.72;stroke-linecap:round;stroke-linejoin:round;stroke-miterlimit:10;stroke-dasharray:none;stroke-opacity:1"
       transform="matrix(1.3333333,0,0,-1.3333333,0,1056)" />
    <path
       id="path26"
       d="m 240.23,701.65 17.25,9.96"
       style="fill:none;stroke:#000000;stroke-width:0.72;stroke-linecap:round;stroke-linejoin:round;stroke-miterlimit:10;stroke-dasharray:none;stroke-opacity:1"
       transform="matrix(1.3333333,0,0,-1.3333333,0,1056)" />
    <path
       id="path27"
       d="m 257.48,711.61 17.25,-9.96"
       style="fill:none;stroke:#000000;stroke-width:0.72;stroke-linecap:round;stroke-linejoin:round;stroke-miterlimit:10;stroke-dasharray:none;stroke-opacity:1"
       transform="matrix(1.3333333,0,0,-1.3333333,0,1056)" />
    <path
       id="path28"
       d="m 257.48,711.61 v 19.92"
       style="fill:none;stroke:#000000;stroke-width:0.72;stroke-linecap:round;stroke-linejoin:round;stroke-miterlimit:10;stroke-dasharray:none;stroke-opacity:1"
       transform="matrix(1.3333333,0,0,-1.3333333,0,1056)" />
    <path
       id="path29"
       d="m 260.84,713.27 v 16.6"
       style="fill:none;stroke:#000000;stroke-width:0.72;stroke-linecap:round;stroke-linejoin:round;stroke-miterlimit:10;stroke-dasharray:none;stroke-opacity:1"
       transform="matrix(1.3333333,0,0,-1.3333333,0,1056)" />
    <path
       id="path30"
       d="m 274.73,701.65 17.26,9.96"
       style="fill:none;stroke:#000000;stroke-width:0.72;stroke-linecap:round;stroke-linejoin:round;stroke-miterlimit:10;stroke-dasharray:none;stroke-opacity:1"
       transform="matrix(1.3333333,0,0,-1.3333333,0,1056)" />
    <path
       id="path31"
       d="m 274.49,705.39 14.38,8.3"
       style="fill:none;stroke:#000000;stroke-width:0.72;stroke-linecap:round;stroke-linejoin:round;stroke-miterlimit:10;stroke-dasharray:none;stroke-opacity:1"
       transform="matrix(1.3333333,0,0,-1.3333333,0,1056)" />
    <path
       id="path32"
       d="m 291.99,711.61 v 19.92"
       style="fill:none;stroke:#000000;stroke-width:0.72;stroke-linecap:round;stroke-linejoin:round;stroke-miterlimit:10;stroke-dasharray:none;stroke-opacity:1"
       transform="matrix(1.3333333,0,0,-1.3333333,0,1056)" />
    <path
       id="path33"
       d="m 291.99,731.53 -17.26,9.96"
       style="fill:none;stroke:#000000;stroke-width:0.72;stroke-linecap:round;stroke-linejoin:round;stroke-miterlimit:10;stroke-dasharray:none;stroke-opacity:1"
       transform="matrix(1.3333333,0,0,-1.3333333,0,1056)" />
    <path
       id="path34"
       d="m 288.87,729.45 -14.38,8.3"
       style="fill:none;stroke:#000000;stroke-width:0.72;stroke-linecap:round;stroke-linejoin:round;stroke-miterlimit:10;stroke-dasharray:none;stroke-opacity:1"
       transform="matrix(1.3333333,0,0,-1.3333333,0,1056)" />
    <path
       id="path35"
       d="m 274.73,741.49 -17.25,-9.96"
       style="fill:none;stroke:#000000;stroke-width:0.72;stroke-linecap:round;stroke-linejoin:round;stroke-miterlimit:10;stroke-dasharray:none;stroke-opacity:1"
       transform="matrix(1.3333333,0,0,-1.3333333,0,1056)" />
  </g>
</svg>
